<svg id="my-svg" width="100%" xmlns="http://www.w3.org/2000/svg" xmlns:xlink="http://www.w3.org/1999/xlink" class="flowchart" style="max-width: 732.73px; background-color: rgb(234, 238, 242);" viewBox="4 4 732.72998046875 175" role="graphics-document document" aria-roledescription="flowchart-v2"><style>#my-svg{font-family:JetBrains Mono,Fira Code,DejaVu Sans Mono,monospace;font-size:16px;fill:#424a53;}@keyframes edge-animation-frame{from{stroke-dashoffset:0;}}@keyframes dash{to{stroke-dashoffset:0;}}#my-svg .edge-animation-slow{stroke-dasharray:9,5!important;stroke-dashoffset:900;animation:dash 50s linear infinite;stroke-linecap:round;}#my-svg .edge-animation-fast{stroke-dasharray:9,5!important;stroke-dashoffset:900;animation:dash 20s linear infinite;stroke-linecap:round;}#my-svg .error-icon{fill:#d0d7de;}#my-svg .error-text{fill:#424a53;stroke:#424a53;}#my-svg .edge-thickness-normal{stroke-width:1px;}#my-svg .edge-thickness-thick{stroke-width:3.5px;}#my-svg .edge-pattern-solid{stroke-dasharray:0;}#my-svg .edge-thickness-invisible{stroke-width:0;fill:none;}#my-svg .edge-pattern-dashed{stroke-dasharray:3;}#my-svg .edge-pattern-dotted{stroke-dasharray:2;}#my-svg .marker{fill:#6e7781;stroke:#6e7781;}#my-svg .marker.cross{stroke:#6e7781;}#my-svg svg{font-family:JetBrains Mono,Fira Code,DejaVu Sans Mono,monospace;font-size:16px;}#my-svg p{margin:0;}#my-svg .label{font-family:JetBrains Mono,Fira Code,DejaVu Sans Mono,monospace;color:#424a53;}#my-svg .cluster-label text{fill:#424a53;}#my-svg .cluster-label span{color:#424a53;}#my-svg .cluster-label span p{background-color:transparent;}#my-svg .label text,#my-svg span{fill:#424a53;color:#424a53;}#my-svg .node rect,#my-svg .node circle,#my-svg .node ellipse,#my-svg .node polygon,#my-svg .node path{fill:#d0d7de;stroke:#6e7781;stroke-width:1px;}#my-svg .rough-node .label text,#my-svg .node .label text,#my-svg .image-shape .label,#my-svg .icon-shape .label{text-anchor:middle;}#my-svg .node .katex path{fill:#000;stroke:#000;stroke-width:1px;}#my-svg .rough-node .label,#my-svg .node .label,#my-svg .image-shape .label,#my-svg .icon-shape .label{text-align:center;}#my-svg .node.clickable{cursor:pointer;}#my-svg .root .anchor path{fill:#6e7781!important;stroke-width:0;stroke:#6e7781;}#my-svg .arrowheadPath{fill:#15110d;}#my-svg .edgePath .path{stroke:#6e7781;stroke-width:1px;}#my-svg .flowchart-link{stroke:#6e7781;fill:none;}#my-svg .edgeLabel{background-color:#eaeef2;text-align:center;}#my-svg .edgeLabel p{background-color:#eaeef2;}#my-svg .edgeLabel rect{opacity:0.5;background-color:#eaeef2;fill:#eaeef2;}#my-svg .labelBkg{background-color:rgba(234, 238, 242, 0.5);}#my-svg .cluster rect{fill:#d0d7de;stroke:#8c959f;stroke-width:1px;}#my-svg .cluster text{fill:#424a53;}#my-svg .cluster span{color:#424a53;}#my-svg div.mermaidTooltip{position:absolute;text-align:center;max-width:200px;padding:2px;font-family:JetBrains Mono,Fira Code,DejaVu Sans Mono,monospace;font-size:12px;background:#d0d7de;border:1px solid #8c959f;border-radius:2px;pointer-events:none;z-index:100;}#my-svg .flowchartTitleText{text-anchor:middle;font-size:18px;fill:#424a53;}#my-svg rect.text{fill:none;stroke-width:0;}#my-svg .icon-shape,#my-svg .image-shape{background-color:#eaeef2;text-align:center;}#my-svg .icon-shape p,#my-svg .image-shape p{background-color:#eaeef2;padding:2px;}#my-svg .icon-shape .label rect,#my-svg .image-shape .label rect{opacity:0.5;background-color:#eaeef2;fill:#eaeef2;}#my-svg .label-icon{display:inline-block;height:1em;overflow:visible;vertical-align:-0.125em;}#my-svg .node .label-icon path{fill:currentColor;stroke:revert;stroke-width:revert;}#my-svg .node .neo-node{stroke:#6e7781;}#my-svg [data-look="neo"].node rect,#my-svg [data-look="neo"].cluster rect,#my-svg [data-look="neo"].node polygon{stroke:url(#my-svg-gradient);filter:drop-shadow( 1px 2px 2px rgba(185,185,185,1));}#my-svg [data-look="neo"].node path{stroke:url(#my-svg-gradient);stroke-width:1px;}#my-svg [data-look="neo"].node .outer-path{filter:drop-shadow( 1px 2px 2px rgba(185,185,185,1));}#my-svg [data-look="neo"].node .neo-line path{stroke:#6e7781;filter:none;}#my-svg [data-look="neo"].node circle{stroke:url(#my-svg-gradient);filter:drop-shadow( 1px 2px 2px rgba(185,185,185,1));}#my-svg [data-look="neo"].node circle .state-start{fill:#000000;}#my-svg [data-look="neo"].icon-shape .icon{fill:url(#my-svg-gradient);filter:drop-shadow( 1px 2px 2px rgba(185,185,185,1));}#my-svg [data-look="neo"].icon-shape .icon-neo path{stroke:url(#my-svg-gradient);filter:drop-shadow( 1px 2px 2px rgba(185,185,185,1));}#my-svg :root{--mermaid-font-family:JetBrains Mono,Fira Code,DejaVu Sans Mono,monospace;}#my-svg .root&gt;*{fill:#218bff!important;stroke:#218bff!important;color:#1f2328!important;font-weight:bold!important;}#my-svg .root span{fill:#218bff!important;stroke:#218bff!important;color:#1f2328!important;font-weight:bold!important;}#my-svg .root tspan{fill:#1f2328!important;}#my-svg .apps_c&gt;*{fill:#2da44e!important;stroke:#2da44e!important;color:#1f2328!important;stroke-dasharray:3 3!important;stroke-width:1px!important;}#my-svg .apps_c span{fill:#2da44e!important;stroke:#2da44e!important;color:#1f2328!important;stroke-dasharray:3 3!important;stroke-width:1px!important;}#my-svg .apps_c tspan{fill:#1f2328!important;}#my-svg .core_c&gt;*{fill:#bf8700!important;stroke:#bf8700!important;color:#1f2328!important;stroke-dasharray:3 3!important;stroke-width:1px!important;}#my-svg .core_c span{fill:#bf8700!important;stroke:#bf8700!important;color:#1f2328!important;stroke-dasharray:3 3!important;stroke-width:1px!important;}#my-svg .core_c tspan{fill:#1f2328!important;}#my-svg .core__default_c&gt;*{fill:#4d2d00!important;stroke:#4d2d00!important;color:#1f2328!important;stroke-width:3px!important;}#my-svg .core__default_c span{fill:#4d2d00!important;stroke:#4d2d00!important;color:#1f2328!important;stroke-width:3px!important;}#my-svg .core__default_c tspan{fill:#1f2328!important;}#my-svg .disk_c&gt;*{fill:#2da44e!important;stroke:#2da44e!important;color:#1f2328!important;stroke-dasharray:3 3!important;stroke-width:1px!important;}#my-svg .disk_c span{fill:#2da44e!important;stroke:#2da44e!important;color:#1f2328!important;stroke-dasharray:3 3!important;stroke-width:1px!important;}#my-svg .disk_c tspan{fill:#1f2328!important;}#my-svg .disk__impermanence_c&gt;*{fill:#4d2d00!important;stroke:#4d2d00!important;color:#1f2328!important;stroke-width:3px!important;}#my-svg .disk__impermanence_c span{fill:#4d2d00!important;stroke:#4d2d00!important;color:#1f2328!important;stroke-width:3px!important;}#my-svg .disk__impermanence_c tspan{fill:#1f2328!important;}#my-svg .core__persist_home_collector_c&gt;*{fill:#a475f9!important;stroke:#a475f9!important;color:#1f2328!important;stroke-width:3px!important;}#my-svg .core__persist_home_collector_c span{fill:#a475f9!important;stroke:#a475f9!important;color:#1f2328!important;stroke-width:3px!important;}#my-svg .core__persist_home_collector_c tspan{fill:#1f2328!important;}#my-svg .uplink_c&gt;*{fill:#a475f9!important;stroke:#a475f9!important;color:#1f2328!important;stroke-width:3px!important;}#my-svg .uplink_c span{fill:#a475f9!important;stroke:#a475f9!important;color:#1f2328!important;stroke-width:3px!important;}#my-svg .uplink_c tspan{fill:#1f2328!important;}#my-svg .apps__zsh_c&gt;*{fill:#4d2d00!important;stroke:#4d2d00!important;color:#1f2328!important;stroke-width:3px!important;}#my-svg .apps__zsh_c span{fill:#4d2d00!important;stroke:#4d2d00!important;color:#1f2328!important;stroke-width:3px!important;}#my-svg .apps__zsh_c tspan{fill:#1f2328!important;}</style><g><marker id="my-svg_flowchart-v2-pointEnd" class="marker flowchart-v2" viewBox="0 0 10 10" refX="5" refY="5" markerUnits="userSpaceOnUse" markerWidth="8" markerHeight="8" orient="auto"><path d="M 0 0 L 10 5 L 0 10 z" class="arrowMarkerPath" style="stroke-width: 1; stroke-dasharray: 1, 0;"/></marker><marker id="my-svg_flowchart-v2-pointStart" class="marker flowchart-v2" viewBox="0 0 10 10" refX="4.5" refY="5" markerUnits="userSpaceOnUse" markerWidth="8" markerHeight="8" orient="auto"><path d="M 0 5 L 10 10 L 10 0 z" class="arrowMarkerPath" style="stroke-width: 1; stroke-dasharray: 1, 0;"/></marker><marker id="my-svg_flowchart-v2-pointEnd-margin" class="marker flowchart-v2" viewBox="0 0 11.5 14" refX="11.5" refY="7" markerUnits="userSpaceOnUse" markerWidth="10.5" markerHeight="14" orient="auto"><path d="M 0 0 L 11.5 7 L 0 14 z" class="arrowMarkerPath" style="stroke-width: 0; stroke-dasharray: 1, 0;"/></marker><marker id="my-svg_flowchart-v2-pointStart-margin" class="marker flowchart-v2" viewBox="0 0 11.5 14" refX="1" refY="7" markerUnits="userSpaceOnUse" markerWidth="11.5" markerHeight="14" orient="auto"><polygon points="0,7 11.5,14 11.5,0" class="arrowMarkerPath" style="stroke-width: 0; stroke-dasharray: 1, 0;"/></marker><marker id="my-svg_flowchart-v2-circleEnd" class="marker flowchart-v2" viewBox="0 0 10 10" refX="11" refY="5" markerUnits="userSpaceOnUse" markerWidth="11" markerHeight="11" orient="auto"><circle cx="5" cy="5" r="5" class="arrowMarkerPath" style="stroke-width: 1; stroke-dasharray: 1, 0;"/></marker><marker id="my-svg_flowchart-v2-circleStart" class="marker flowchart-v2" viewBox="0 0 10 10" refX="-1" refY="5" markerUnits="userSpaceOnUse" markerWidth="11" markerHeight="11" orient="auto"><circle cx="5" cy="5" r="5" class="arrowMarkerPath" style="stroke-width: 1; stroke-dasharray: 1, 0;"/></marker><marker id="my-svg_flowchart-v2-circleEnd-margin" class="marker flowchart-v2" viewBox="0 0 10 10" refY="5" refX="12.25" markerUnits="userSpaceOnUse" markerWidth="14" markerHeight="14" orient="auto"><circle cx="5" cy="5" r="5" class="arrowMarkerPath" style="stroke-width: 0; stroke-dasharray: 1, 0;"/></marker><marker id="my-svg_flowchart-v2-circleStart-margin" class="marker flowchart-v2" viewBox="0 0 10 10" refX="-2" refY="5" markerUnits="userSpaceOnUse" markerWidth="14" markerHeight="14" orient="auto"><circle cx="5" cy="5" r="5" class="arrowMarkerPath" style="stroke-width: 0; stroke-dasharray: 1, 0;"/></marker><marker id="my-svg_flowchart-v2-crossEnd" class="marker cross flowchart-v2" viewBox="0 0 11 11" refX="12" refY="5.2" markerUnits="userSpaceOnUse" markerWidth="11" markerHeight="11" orient="auto"><path d="M 1,1 l 9,9 M 10,1 l -9,9" class="arrowMarkerPath" style="stroke-width: 2; stroke-dasharray: 1, 0;"/></marker><marker id="my-svg_flowchart-v2-crossStart" class="marker cross flowchart-v2" viewBox="0 0 11 11" refX="-1" refY="5.2" markerUnits="userSpaceOnUse" markerWidth="11" markerHeight="11" orient="auto"><path d="M 1,1 l 9,9 M 10,1 l -9,9" class="arrowMarkerPath" style="stroke-width: 2; stroke-dasharray: 1, 0;"/></marker><marker id="my-svg_flowchart-v2-crossEnd-margin" class="marker cross flowchart-v2" viewBox="0 0 15 15" refX="17.7" refY="7.5" markerUnits="userSpaceOnUse" markerWidth="12" markerHeight="12" orient="auto"><path d="M 1,1 L 14,14 M 1,14 L 14,1" class="arrowMarkerPath" style="stroke-width: 2.5;"/></marker><marker id="my-svg_flowchart-v2-crossStart-margin" class="marker cross flowchart-v2" viewBox="0 0 15 15" refX="-3.5" refY="7.5" markerUnits="userSpaceOnUse" markerWidth="12" markerHeight="12" orient="auto"><path d="M 1,1 L 14,14 M 1,14 L 14,1" class="arrowMarkerPath" style="stroke-width: 2.5; stroke-dasharray: 1, 0;"/></marker></g><defs><filter id="my-svg-drop-shadow" height="130%" width="130%"><feDropShadow dx="4" dy="4" stdDeviation="0" flood-opacity="0.06" flood-color="#000000"/></filter></defs><defs><filter id="my-svg-drop-shadow-small" height="150%" width="150%"><feDropShadow dx="2" dy="2" stdDeviation="0" flood-opacity="0.06" flood-color="#000000"/></filter></defs><linearGradient id="my-svg-gradient" gradientUnits="objectBoundingBox" x1="0%" y1="0%" x2="100%" y2="0%"><stop offset="0%" stop-color="#6e7781" stop-opacity="1"/><stop offset="100%" stop-color="#8c959f" stop-opacity="1"/></linearGradient><g class="subgraphs"><g class="subgraph"><g class="cluster " id="[object Object]" data-look="classic"><rect style="fill:#d0d7de !important;stroke:#8c959f !important;stroke-width:2px !important" x="12" y="12" width="716.7299652099609" height="159"/><g class="cluster-label " transform="translate(310.36498260498047, 12)"><foreignObject width="120" height="24"><div xmlns="http://www.w3.org/1999/xhtml" style="display: table-cell; white-space: nowrap; line-height: 1.5;"><span class="nodeLabel "><p>host: uplink</p></span></div></foreignObject></g></g></g></g><g class="nodes"><g class="node default root " id="my-svg-flowchart-uplink-0" data-look="classic" transform="translate(66.36498260498047, 77)"><g class="basic label-container outer-path"><path d="M-22.875 -19.5 C-4.779319059488589 -19.5, 13.316361881022821 -19.5, 22.875 -19.5 C22.875 -19.5, 22.875 -19.5, 22.875 -19.5 C23.35433114761994 -19.484628783057307, 23.83366229523988 -19.469257566114617, 24.1243692896239 -19.45993515863156 C24.45345327631222 -19.428188822217134, 24.782537263000542 -19.396442485802712, 25.368604652847864 -19.3399052695533 C25.647281747128076 -19.294850918123217, 25.925958841408292 -19.24979656669314, 26.60259325967676 -19.140403561325776 C26.918957687654682 -19.068195445110643, 27.235322115632602 -18.99598732889551, 27.82126438623539 -18.862249829261074 C28.073190146039916 -18.78747958613639, 28.32511590584444 -18.712709343011703, 29.019610251460602 -18.50658706670804 C29.312970394806946 -18.398627822165146, 29.606330538153287 -18.290668577622256, 30.192706595147794 -18.074876768247425 C30.600432423641195 -17.89438863873037, 31.008158252134596 -17.713900509213317, 31.33573291279238 -17.568892924097174 C31.74300327682527 -17.356420236050333, 32.15027364085816 -17.143947548003496, 32.44399226407678 -16.990714730406097 C32.69332113599327 -16.83957010303123, 32.94265000790977 -16.688425475656363, 33.5129305736057 -16.342718045390892 C33.76793237438035 -16.16483982802054, 34.022934175154994 -15.986961610650184, 34.53815534457871 -15.627565626425154 C34.77855077795552 -15.435856665498292, 35.018946211332334 -15.24414770457143, 35.515453708501866 -14.848196188198123 C35.74262100411972 -14.641888860835264, 35.96978829973758 -14.435581533472405, 36.44080973676799 -14.007812326905688 C36.61567625298582 -13.827248292102794, 36.790542769203654 -13.646684257299901, 37.31042094296865 -13.10986736009568 C37.475168697605355 -12.916345273086597, 37.63991645224207 -12.722823186077514, 38.12071390812658 -12.158051136245305 C38.300177143916684 -11.917586749723686, 38.47964037970679 -11.677122363202066, 38.868358964640635 -11.156274872382312 C39.01403332856549 -10.932479930349839, 39.15970769249034 -10.708684988317364, 39.55028387860425 -10.108655082055241 C39.73557883522731 -9.779645123422037, 39.92087379185037 -9.450635164788832, 40.163686474273504 -9.019496659696287 C40.37701719060579 -8.576510862686188, 40.59034790693808 -8.13352506567609, 40.70604614880834 -7.893275190886684 C40.83825420426147 -7.5667187378486025, 40.97046225971459 -7.240162284810521, 41.175134229970325 -6.734618561215508 C41.29187252437888 -6.383021418178259, 41.40861081878744 -6.031424275141012, 41.56902313421488 -5.548287939305138 C41.65179255413031 -5.232652268674101, 41.73456197404574 -4.9170165980430625, 41.88609428754556 -4.339158212148133 C41.944496068430674 -4.03927741052384, 42.00289784931579 -3.739396608899547, 42.125044776581774 -3.1121979531509023 C42.17328788110857 -2.7380339611195943, 42.22153098563537 -2.3638699690882863, 42.28489270250937 -1.872449005199798 C42.309187613292295 -1.4940361592566602, 42.33348252407523 -1.1156233133135225, 42.36498121591342 -0.6250057626472757 C42.36498121591342 -0.22159225825827855, 42.36498121591342 0.1818212461307186, 42.36498121591342 0.625005762647271 C42.33953205984244 1.0213969106417649, 42.314082903771464 1.4177880586362588, 42.28489270250937 1.8724490051997846 C42.24245558742433 2.201582889643076, 42.200018472339295 2.5307167740863665, 42.125044776581774 3.1121979531508885 C42.07104488726727 3.389475971900207, 42.01704499795277 3.6667539906495255, 41.88609428754556 4.339158212148129 C41.81882546142435 4.595683400641971, 41.75155663530314 4.852208589135815, 41.56902313421489 5.548287939305125 C41.43203724265788 5.96086761893701, 41.29505135110087 6.373447298568894, 41.175134229970325 6.734618561215495 C41.010136789572535 7.142165429006539, 40.845139349174744 7.549712296797583, 40.70604614880834 7.893275190886679 C40.585978115376605 8.142599031352043, 40.46591008194487 8.391922871817407, 40.163686474273504 9.019496659696284 C39.97287649589716 9.358299097908956, 39.78206651752081 9.697101536121629, 39.55028387860425 10.108655082055236 C39.330022356021374 10.447035929242917, 39.1097608334385 10.785416776430596, 38.86835896464064 11.156274872382301 C38.57213866523511 11.553183087361285, 38.27591836582957 11.950091302340269, 38.12071390812658 12.158051136245302 C37.83298749152508 12.496030957282327, 37.54526107492359 12.834010778319355, 37.31042094296866 13.10986736009567 C37.0395268991628 13.38958770113984, 36.76863285535694 13.66930804218401, 36.44080973676799 14.007812326905684 C36.211443399734925 14.216116765498388, 35.98207706270187 14.42442120409109, 35.51545370850189 14.848196188198111 C35.256491619262434 15.054711563095967, 34.99752953002297 15.261226937993824, 34.53815534457871 15.627565626425152 C34.26775784053832 15.816183219924437, 33.997360336497934 16.00480081342372, 33.51293057360571 16.34271804539089 C33.122411644019685 16.5794529154499, 32.73189271443367 16.81618778550891, 32.44399226407678 16.990714730406093 C32.08313921961404 17.1789715325649, 31.722286175151293 17.36722833472371, 31.335732912792388 17.56889292409717 C31.082237500456745 17.681107823463925, 30.828742088121103 17.793322722830684, 30.192706595147804 18.07487676824742 C29.903068147936388 18.18146639420968, 29.613429700724975 18.288056020171933, 29.019610251460616 18.506587066708033 C28.747435056407518 18.58736723592304, 28.475259861354424 18.668147405138047, 27.821264386235413 18.86224982926107 C27.368105614008794 18.96568036188445, 26.914946841782175 19.069110894507826, 26.602593259676766 19.140403561325773 C26.274859113018476 19.19338907654122, 25.947124966360185 19.246374591756666, 25.36860465284788 19.3399052695533 C24.98533517857918 19.37687881478702, 24.602065704310483 19.413852360020737, 24.1243692896239 19.45993515863156 C23.85592437256103 19.468543664625432, 23.58747945549816 19.477152170619306, 22.875000000000004 19.5 C22.875000000000004 19.5, 22.875 19.5, 22.875 19.5 C10.779089999643446 19.5, -1.3168200007131077 19.5, -22.874999999999996 19.5 C-23.29471838664663 19.48654044827252, -23.714436773293265 19.473080896545046, -24.124369289623893 19.45993515863156 C-24.61629177263915 19.41247998831842, -25.10821425565441 19.36502481800528, -25.36860465284787 19.3399052695533 C-25.81704522700018 19.267404875232945, -26.26548580115249 19.19490448091259, -26.60259325967676 19.140403561325773 C-26.859191395136925 19.08183671136631, -27.115789530597088 19.02326986140685, -27.821264386235388 18.862249829261074 C-28.160527454830607 18.7615583313302, -28.499790523425826 18.66086683339933, -29.01961025146059 18.506587066708043 C-29.353017197265075 18.383890228671973, -29.68642414306956 18.2611933906359, -30.192706595147797 18.074876768247425 C-30.47108140113027 17.951648499334205, -30.749456207112747 17.82842023042099, -31.33573291279238 17.568892924097174 C-31.57040856712783 17.4464627855473, -31.805084221463286 17.324032646997427, -32.44399226407678 16.990714730406097 C-32.82492479173753 16.759791193530138, -33.20585731939828 16.528867656654175, -33.512930573605686 16.3427180453909 C-33.77240228441474 16.161721812279833, -34.03187399522379 15.980725579168764, -34.53815534457871 15.627565626425156 C-34.85342445143551 15.376146903370135, -35.16869355829231 15.124728180315113, -35.515453708501866 14.848196188198125 C-35.82941049346774 14.563068942933446, -36.14336727843362 14.277941697668767, -36.440809736767974 14.007812326905697 C-36.66031409529039 13.781156055088315, -36.879818453812796 13.554499783270936, -37.310420942968655 13.109867360095677 C-37.499055388410646 12.888286606875498, -37.68768983385264 12.66670585365532, -38.120713908126575 12.158051136245307 C-38.27027880404278 11.957647801359915, -38.41984369995899 11.757244466474523, -38.868358964640635 11.156274872382316 C-39.07409840130586 10.840203848890232, -39.27983783797108 10.524132825398148, -39.55028387860425 10.108655082055249 C-39.76957155683439 9.719287604072345, -39.98885923506454 9.329920126089442, -40.163686474273504 9.019496659696289 C-40.35357609906479 8.625186790830098, -40.543465723856066 8.230876921963906, -40.70604614880834 7.893275190886686 C-40.83890994468492 7.565099046324788, -40.9717737405615 7.236922901762889, -41.175134229970325 6.73461856121551 C-41.32878054904789 6.2718603283703365, -41.482426868125465 5.809102095525163, -41.56902313421488 5.5482879393051325 C-41.694131809514005 5.0711943379466975, -41.819240484813136 4.594100736588262, -41.88609428754556 4.339158212148136 C-41.97003666035989 3.9081318689733244, -42.05397903317422 3.477105525798513, -42.125044776581774 3.112197953150904 C-42.175492187000685 2.7209377999097764, -42.225939597419604 2.3296776466686486, -42.28489270250937 1.872449005199809 C-42.312854100413816 1.4369276628039263, -42.34081549831826 1.0014063204080434, -42.36498121591342 0.6250057626472781 C-42.36498121591342 0.2903163536256516, -42.36498121591342 -0.044373055395974914, -42.36498121591342 -0.6250057626472687 C-42.34503365613685 -0.9357051075477616, -42.32508609636028 -1.2464044524482545, -42.28489270250937 -1.8724490051997822 C-42.22348169413975 -2.348740659139269, -42.16207068577013 -2.825032313078756, -42.125044776581774 -3.112197953150895 C-42.04275245994598 -3.5347516065884377, -41.96046014331018 -3.95730526002598, -41.88609428754556 -4.339158212148126 C-41.782599226528916 -4.733829734847783, -41.67910416551227 -5.128501257547439, -41.56902313421489 -5.548287939305123 C-41.436316787507735 -5.9479783117021165, -41.30361044080058 -6.3476686840991094, -41.17513422997033 -6.734618561215485 C-41.01068402747866 -7.140813740798275, -40.846233824986996 -7.547008920381065, -40.70604614880834 -7.893275190886676 C-40.53850741881933 -8.241172948463412, -40.370968688830324 -8.589070706040147, -40.163686474273504 -9.019496659696282 C-40.03544904756656 -9.247195196262016, -39.907211620859606 -9.47489373282775, -39.55028387860425 -10.108655082055243 C-39.40599108247703 -10.330327564947643, -39.26169828634982 -10.55200004784004, -38.86835896464064 -11.156274872382308 C-38.57583378769811 -11.548231959893455, -38.28330861075557 -11.9401890474046, -38.12071390812659 -12.158051136245302 C-37.83537549070032 -12.493225877570096, -37.550037073274055 -12.828400618894891, -37.31042094296866 -13.10986736009567 C-37.05723928264624 -13.37129821097946, -36.80405762232382 -13.632729061863248, -36.440809736767996 -14.007812326905677 C-36.09562015153921 -14.321304374994524, -35.75043056631041 -14.634796423083369, -35.51545370850189 -14.848196188198107 C-35.25967447465536 -15.052173320619442, -35.00389524080884 -15.256150453040778, -34.53815534457872 -15.627565626425149 C-34.1409568863069 -15.904634076471439, -33.74375842803508 -16.18170252651773, -33.512930573605715 -16.342718045390885 C-33.140314809212086 -16.56859991149959, -32.76769904481846 -16.794481777608294, -32.44399226407679 -16.99071473040609 C-32.17535489456518 -17.130862674009848, -31.906717525053576 -17.27101061761361, -31.335732912792388 -17.56889292409717 C-31.07970038037665 -17.682230931262392, -30.823667847960916 -17.79556893842761, -30.192706595147804 -18.07487676824742 C-29.836914192071458 -18.205811661488436, -29.48112178899511 -18.33674655472945, -29.01961025146062 -18.506587066708033 C-28.752750546588118 -18.585789626339015, -28.485890841715616 -18.66499218597, -27.821264386235413 -18.862249829261067 C-27.345221193727344 -18.97090358147889, -26.86917800121927 -19.07955733369671, -26.602593259676766 -19.140403561325773 C-26.219859873150792 -19.202280927117553, -25.83712648662482 -19.26415829290933, -25.368604652847882 -19.3399052695533 C-24.919242936265967 -19.383254653915422, -24.469881219684055 -19.42660403827755, -24.124369289623903 -19.45993515863156 C-23.70552464662757 -19.47336669110081, -23.286680003631233 -19.486798223570062, -22.875000000000007 -19.5 C-22.875000000000004 -19.5, -22.875000000000004 -19.5, -22.875 -19.5" stroke="none" stroke-width="0" fill="#218bff" style="fill:#218bff !important;stroke:#218bff !important"/><path d="M-22.875 -19.5 C-6.996511593798111 -19.5, 8.881976812403778 -19.5, 22.875 -19.5 M-22.875 -19.5 C-7.912781833429557 -19.5, 7.049436333140886 -19.5, 22.875 -19.5 M22.875 -19.5 C22.875 -19.5, 22.875 -19.5, 22.875 -19.5 M22.875 -19.5 C22.875 -19.5, 22.875 -19.5, 22.875 -19.5 M22.875 -19.5 C23.168966282207023 -19.49057307350028, 23.46293256441405 -19.481146147000555, 24.1243692896239 -19.45993515863156 M22.875 -19.5 C23.160174230320425 -19.49085501749159, 23.44534846064085 -19.48171003498318, 24.1243692896239 -19.45993515863156 M24.1243692896239 -19.45993515863156 C24.39216700254757 -19.434101035339683, 24.65996471547124 -19.408266912047807, 25.368604652847864 -19.3399052695533 M24.1243692896239 -19.45993515863156 C24.449492087575525 -19.42857095333054, 24.77461488552715 -19.397206748029518, 25.368604652847864 -19.3399052695533 M25.368604652847864 -19.3399052695533 C25.707245176163905 -19.285156495940043, 26.045885699479946 -19.230407722326788, 26.60259325967676 -19.140403561325776 M25.368604652847864 -19.3399052695533 C25.641516288155103 -19.295783032818164, 25.914427923462345 -19.251660796083033, 26.60259325967676 -19.140403561325776 M26.60259325967676 -19.140403561325776 C26.886306531735695 -19.075647858380446, 27.17001980379463 -19.010892155435116, 27.82126438623539 -18.862249829261074 M26.60259325967676 -19.140403561325776 C26.962651443604827 -19.058222630443424, 27.322709627532895 -18.976041699561076, 27.82126438623539 -18.862249829261074 M27.82126438623539 -18.862249829261074 C28.216856306683407 -18.744840223776468, 28.61244822713142 -18.62743061829186, 29.019610251460602 -18.50658706670804 M27.82126438623539 -18.862249829261074 C28.097716412238437 -18.780200319069667, 28.37416843824148 -18.69815080887826, 29.019610251460602 -18.50658706670804 M29.019610251460602 -18.50658706670804 C29.464654754005796 -18.342806575825126, 29.909699256550986 -18.17902608494221, 30.192706595147794 -18.074876768247425 M29.019610251460602 -18.50658706670804 C29.427117747140496 -18.356620541339844, 29.834625242820387 -18.206654015971644, 30.192706595147794 -18.074876768247425 M30.192706595147794 -18.074876768247425 C30.539408059254445 -17.921402314620934, 30.886109523361092 -17.767927860994444, 31.33573291279238 -17.568892924097174 M30.192706595147794 -18.074876768247425 C30.52316255206956 -17.928593718745834, 30.853618508991328 -17.78231066924424, 31.33573291279238 -17.568892924097174 M31.33573291279238 -17.568892924097174 C31.612428158663995 -17.42454119155772, 31.889123404535606 -17.28018945901826, 32.44399226407678 -16.990714730406097 M31.33573291279238 -17.568892924097174 C31.60368410526273 -17.429102958616323, 31.87163529773308 -17.289312993135475, 32.44399226407678 -16.990714730406097 M32.44399226407678 -16.990714730406097 C32.808348111021225 -16.76984007479575, 33.172703957965666 -16.548965419185404, 33.5129305736057 -16.342718045390892 M32.44399226407678 -16.990714730406097 C32.71633939277892 -16.825616300497483, 32.98868652148105 -16.66051787058887, 33.5129305736057 -16.342718045390892 M33.5129305736057 -16.342718045390892 C33.91220532069056 -16.06420126614972, 34.31148006777542 -15.785684486908549, 34.53815534457871 -15.627565626425154 M33.5129305736057 -16.342718045390892 C33.783818670466104 -16.15375823557779, 34.05470676732651 -15.964798425764686, 34.53815534457871 -15.627565626425154 M34.53815534457871 -15.627565626425154 C34.783339833686135 -15.432037520995255, 35.02852432279356 -15.236509415565358, 35.515453708501866 -14.848196188198123 M34.53815534457871 -15.627565626425154 C34.86415247695637 -15.367591588501996, 35.19014960933403 -15.107617550578839, 35.515453708501866 -14.848196188198123 M35.515453708501866 -14.848196188198123 C35.77468329061436 -14.612770740562448, 36.03391287272686 -14.377345292926773, 36.44080973676799 -14.007812326905688 M35.515453708501866 -14.848196188198123 C35.778764442114145 -14.609064346751696, 36.042075175726424 -14.369932505305268, 36.44080973676799 -14.007812326905688 M36.44080973676799 -14.007812326905688 C36.72927897961109 -13.709944149904887, 37.017748222454195 -13.412075972904086, 37.31042094296865 -13.10986736009568 M36.44080973676799 -14.007812326905688 C36.62774979089452 -13.814781372956167, 36.81468984502104 -13.621750419006649, 37.31042094296865 -13.10986736009568 M37.31042094296865 -13.10986736009568 C37.57705697071886 -12.796661509880506, 37.84369299846906 -12.483455659665331, 38.12071390812658 -12.158051136245305 M37.31042094296865 -13.10986736009568 C37.53212386799383 -12.849442489107295, 37.753826793019016 -12.589017618118909, 38.12071390812658 -12.158051136245305 M38.12071390812658 -12.158051136245305 C38.28483600780549 -11.938142474506437, 38.448958107484394 -11.71823381276757, 38.868358964640635 -11.156274872382312 M38.12071390812658 -12.158051136245305 C38.30415652208336 -11.912254745509149, 38.487599136040146 -11.66645835477299, 38.868358964640635 -11.156274872382312 M38.868358964640635 -11.156274872382312 C39.092961568472504 -10.811224958652643, 39.31756417230437 -10.466175044922975, 39.55028387860425 -10.108655082055241 M38.868358964640635 -11.156274872382312 C39.11313919373292 -10.780226707801605, 39.357919422825205 -10.404178543220896, 39.55028387860425 -10.108655082055241 M39.55028387860425 -10.108655082055241 C39.71251181898445 -9.820602946549899, 39.874739759364665 -9.532550811044558, 40.163686474273504 -9.019496659696287 M39.55028387860425 -10.108655082055241 C39.767506456271725 -9.72295439923547, 39.984729033939196 -9.337253716415699, 40.163686474273504 -9.019496659696287 M40.163686474273504 -9.019496659696287 C40.300892615273504 -8.734585172168662, 40.438098756273504 -8.449673684641036, 40.70604614880834 -7.893275190886684 M40.163686474273504 -9.019496659696287 C40.34690239485642 -8.639044880413156, 40.530118315439346 -8.258593101130023, 40.70604614880834 -7.893275190886684 M40.70604614880834 -7.893275190886684 C40.815821912244935 -7.622126932828286, 40.92559767568154 -7.350978674769889, 41.175134229970325 -6.734618561215508 M40.70604614880834 -7.893275190886684 C40.84770010181629 -7.54338718826418, 40.98935405482424 -7.193499185641677, 41.175134229970325 -6.734618561215508 M41.175134229970325 -6.734618561215508 C41.33066526721543 -6.266183857538778, 41.486196304460535 -5.797749153862048, 41.56902313421488 -5.548287939305138 M41.175134229970325 -6.734618561215508 C41.268165134803475 -6.454424298319819, 41.361196039636624 -6.17423003542413, 41.56902313421488 -5.548287939305138 M41.56902313421488 -5.548287939305138 C41.67444846926302 -5.1462554451373475, 41.77987380431116 -4.744222950969558, 41.88609428754556 -4.339158212148133 M41.56902313421488 -5.548287939305138 C41.64801124806792 -5.247072027518422, 41.72699936192095 -4.945856115731708, 41.88609428754556 -4.339158212148133 M41.88609428754556 -4.339158212148133 C41.98149546384198 -3.849293334911769, 42.0768966401384 -3.359428457675404, 42.125044776581774 -3.1121979531509023 M41.88609428754556 -4.339158212148133 C41.94321038103787 -4.045879143555749, 42.00032647453018 -3.7526000749633637, 42.125044776581774 -3.1121979531509023 M42.125044776581774 -3.1121979531509023 C42.16878916913004 -2.7729250828539316, 42.212533561678306 -2.433652212556961, 42.28489270250937 -1.872449005199798 M42.125044776581774 -3.1121979531509023 C42.17997930476487 -2.6861366006123975, 42.23491383294797 -2.2600752480738926, 42.28489270250937 -1.872449005199798 M42.28489270250937 -1.872449005199798 C42.30404297406387 -1.5741680679175163, 42.32319324561836 -1.2758871306352346, 42.36498121591342 -0.6250057626472757 M42.28489270250937 -1.872449005199798 C42.302300854062466 -1.601302993153323, 42.31970900561556 -1.3301569811068479, 42.36498121591342 -0.6250057626472757 M42.36498121591342 -0.6250057626472757 C42.36498121591342 -0.18471009386611192, 42.36498121591342 0.25558557491505185, 42.36498121591342 0.625005762647271 M42.36498121591342 -0.6250057626472757 C42.36498121591342 -0.25672449521669755, 42.36498121591342 0.1115567722138806, 42.36498121591342 0.625005762647271 M42.36498121591342 0.625005762647271 C42.33581143627239 1.0793486259786267, 42.306641656631356 1.5336914893099822, 42.28489270250937 1.8724490051997846 M42.36498121591342 0.625005762647271 C42.34148788080064 0.9909334205074971, 42.31799454568787 1.3568610783677233, 42.28489270250937 1.8724490051997846 M42.28489270250937 1.8724490051997846 C42.22872551704222 2.3080706042176526, 42.172558331575075 2.74369220323552, 42.125044776581774 3.1121979531508885 M42.28489270250937 1.8724490051997846 C42.22837578172714 2.3107830822583812, 42.171858860944916 2.7491171593169774, 42.125044776581774 3.1121979531508885 M42.125044776581774 3.1121979531508885 C42.04651564694418 3.515428436702533, 41.96798651730658 3.9186589202541766, 41.88609428754556 4.339158212148129 M42.125044776581774 3.1121979531508885 C42.0697544347638 3.3961021727682894, 42.014464092945836 3.6800063923856907, 41.88609428754556 4.339158212148129 M41.88609428754556 4.339158212148129 C41.78255338080518 4.734004564462047, 41.6790124740648 5.128850916775967, 41.56902313421489 5.548287939305125 M41.88609428754556 4.339158212148129 C41.79849690913042 4.673204980989019, 41.71089953071528 5.0072517498299085, 41.56902313421489 5.548287939305125 M41.56902313421489 5.548287939305125 C41.47630850523163 5.82752962973266, 41.38359387624837 6.106771320160195, 41.175134229970325 6.734618561215495 M41.56902313421489 5.548287939305125 C41.45545148212487 5.890347660214857, 41.341879830034856 6.232407381124589, 41.175134229970325 6.734618561215495 M41.175134229970325 6.734618561215495 C40.99277412901104 7.185051536277634, 40.81041402805175 7.635484511339774, 40.70604614880834 7.893275190886679 M41.175134229970325 6.734618561215495 C41.06108378114409 7.016325374831724, 40.94703333231785 7.298032188447953, 40.70604614880834 7.893275190886679 M40.70604614880834 7.893275190886679 C40.54132212083904 8.23532815949451, 40.37659809286974 8.57738112810234, 40.163686474273504 9.019496659696284 M40.70604614880834 7.893275190886679 C40.502531941904834 8.315876796028256, 40.299017735001335 8.738478401169834, 40.163686474273504 9.019496659696284 M40.163686474273504 9.019496659696284 C40.01424150928787 9.284851327971937, 39.86479654430224 9.55020599624759, 39.55028387860425 10.108655082055236 M40.163686474273504 9.019496659696284 C40.029171325068376 9.258341928245864, 39.894656175863254 9.497187196795446, 39.55028387860425 10.108655082055236 M39.55028387860425 10.108655082055236 C39.29204519734602 10.505379043263254, 39.0338065160878 10.902103004471272, 38.86835896464064 11.156274872382301 M39.55028387860425 10.108655082055236 C39.408840543195765 10.325950028096326, 39.267397207787276 10.543244974137417, 38.86835896464064 11.156274872382301 M38.86835896464064 11.156274872382301 C38.62957887906313 11.476218433742858, 38.39079879348563 11.796161995103413, 38.12071390812658 12.158051136245302 M38.86835896464064 11.156274872382301 C38.60869291766859 11.504203719261316, 38.34902687069655 11.852132566140332, 38.12071390812658 12.158051136245302 M38.12071390812658 12.158051136245302 C37.82429341057652 12.50624351947173, 37.527872913026464 12.854435902698157, 37.31042094296866 13.10986736009567 M38.12071390812658 12.158051136245302 C37.9233017422773 12.389942699322317, 37.72588957642803 12.621834262399334, 37.31042094296866 13.10986736009567 M37.31042094296866 13.10986736009567 C37.00923718571095 13.420864317110599, 36.70805342845324 13.73186127412553, 36.44080973676799 14.007812326905684 M37.31042094296866 13.10986736009567 C36.9830782431555 13.447875572988229, 36.65573554334233 13.78588378588079, 36.44080973676799 14.007812326905684 M36.44080973676799 14.007812326905684 C36.148962345477614 14.272860405816775, 35.85711495418724 14.537908484727868, 35.51545370850189 14.848196188198111 M36.44080973676799 14.007812326905684 C36.11147502612534 14.306905397392393, 35.78214031548269 14.605998467879102, 35.51545370850189 14.848196188198111 M35.51545370850189 14.848196188198111 C35.13345085300405 15.152833299934729, 34.751447997506205 15.457470411671347, 34.53815534457871 15.627565626425152 M35.51545370850189 14.848196188198111 C35.30971067399616 15.012270783164345, 35.10396763949042 15.17634537813058, 34.53815534457871 15.627565626425152 M34.53815534457871 15.627565626425152 C34.26192576387648 15.82025142413721, 33.98569618317424 16.012937221849267, 33.51293057360571 16.34271804539089 M34.53815534457871 15.627565626425152 C34.142828324172385 15.903328642429717, 33.74750130376605 16.17909165843428, 33.51293057360571 16.34271804539089 M33.51293057360571 16.34271804539089 C33.16714602748006 16.552334669307804, 32.821361481354415 16.761951293224715, 32.44399226407678 16.990714730406093 M33.51293057360571 16.34271804539089 C33.26686399361162 16.491885052231034, 33.020797413617544 16.64105205907118, 32.44399226407678 16.990714730406093 M32.44399226407678 16.990714730406093 C32.15446999118617 17.14175831472526, 31.864947718295557 17.292801899044427, 31.335732912792388 17.56889292409717 M32.44399226407678 16.990714730406093 C32.11335598788605 17.163207463912155, 31.782719711695325 17.335700197418216, 31.335732912792388 17.56889292409717 M31.335732912792388 17.56889292409717 C31.047733382436252 17.696381772983305, 30.759733852080117 17.82387062186944, 30.192706595147804 18.07487676824742 M31.335732912792388 17.56889292409717 C30.886331775689357 17.7678294764816, 30.43693063858633 17.966766028866033, 30.192706595147804 18.07487676824742 M30.192706595147804 18.07487676824742 C29.89275681299828 18.185261060783837, 29.592807030848757 18.295645353320253, 29.019610251460616 18.506587066708033 M30.192706595147804 18.07487676824742 C29.870003012107826 18.193634669845352, 29.54729942906785 18.312392571443286, 29.019610251460616 18.506587066708033 M29.019610251460616 18.506587066708033 C28.64845226130613 18.61674480993784, 28.27729427115164 18.726902553167644, 27.821264386235413 18.86224982926107 M29.019610251460616 18.506587066708033 C28.6649650771488 18.611843892873274, 28.31031990283698 18.717100719038516, 27.821264386235413 18.86224982926107 M27.821264386235413 18.86224982926107 C27.41549416209128 18.954864235023795, 27.009723937947154 19.047478640786522, 26.602593259676766 19.140403561325773 M27.821264386235413 18.86224982926107 C27.55586558171417 18.92282537450399, 27.290466777192922 18.983400919746913, 26.602593259676766 19.140403561325773 M26.602593259676766 19.140403561325773 C26.247375288539196 19.197832448142787, 25.892157317401622 19.2552613349598, 25.36860465284788 19.3399052695533 M26.602593259676766 19.140403561325773 C26.268820800705015 19.194365304048247, 25.935048341733264 19.248327046770722, 25.36860465284788 19.3399052695533 M25.36860465284788 19.3399052695533 C25.06545921059188 19.369149345782, 24.762313768335883 19.398393422010702, 24.1243692896239 19.45993515863156 M25.36860465284788 19.3399052695533 C24.912251227438812 19.38392913565722, 24.455897802029742 19.42795300176114, 24.1243692896239 19.45993515863156 M24.1243692896239 19.45993515863156 C23.866057749340737 19.46821870695553, 23.607746209057574 19.4765022552795, 22.875000000000004 19.5 M24.1243692896239 19.45993515863156 C23.682926509655836 19.47409136936889, 23.24148372968777 19.48824758010622, 22.875000000000004 19.5 M22.875000000000004 19.5 C22.875000000000004 19.5, 22.875 19.5, 22.875 19.5 M22.875000000000004 19.5 C22.875000000000004 19.5, 22.875000000000004 19.5, 22.875 19.5 M22.875 19.5 C11.859455926116336 19.5, 0.8439118522326723 19.5, -22.874999999999996 19.5 M22.875 19.5 C11.858028932532342 19.5, 0.841057865064684 19.5, -22.874999999999996 19.5 M-22.874999999999996 19.5 C-23.17742161801721 19.49030192733816, -23.479843236034423 19.480603854676314, -24.124369289623893 19.45993515863156 M-22.874999999999996 19.5 C-23.329847404508204 19.485413929044185, -23.78469480901641 19.470827858088374, -24.124369289623893 19.45993515863156 M-24.124369289623893 19.45993515863156 C-24.377598669842627 19.435506424874745, -24.63082805006136 19.41107769111793, -25.36860465284787 19.3399052695533 M-24.124369289623893 19.45993515863156 C-24.5768689607009 19.416283059573235, -25.029368631777906 19.37263096051491, -25.36860465284787 19.3399052695533 M-25.36860465284787 19.3399052695533 C-25.82080587403755 19.266796882984195, -26.27300709522723 19.193688496415096, -26.60259325967676 19.140403561325773 M-25.36860465284787 19.3399052695533 C-25.71603987195474 19.283734637728465, -26.06347509106161 19.22756400590363, -26.60259325967676 19.140403561325773 M-26.60259325967676 19.140403561325773 C-26.869613347604155 19.07945796872526, -27.13663343553155 19.01851237612475, -27.821264386235388 18.862249829261074 M-26.60259325967676 19.140403561325773 C-27.018621415756744 19.04544784953795, -27.43464957183673 18.95049213775013, -27.821264386235388 18.862249829261074 M-27.821264386235388 18.862249829261074 C-28.124502047707363 18.772250483063157, -28.427739709179342 18.682251136865244, -29.01961025146059 18.506587066708043 M-27.821264386235388 18.862249829261074 C-28.073487093963408 18.787391453551407, -28.32570980169143 18.71253307784174, -29.01961025146059 18.506587066708043 M-29.01961025146059 18.506587066708043 C-29.372845977666373 18.37659305418906, -29.726081703872154 18.24659904167007, -30.192706595147797 18.074876768247425 M-29.01961025146059 18.506587066708043 C-29.483833712871764 18.335748541674096, -29.948057174282933 18.16491001664015, -30.192706595147797 18.074876768247425 M-30.192706595147797 18.074876768247425 C-30.614425053581684 17.888194516532337, -31.03614351201557 17.70151226481725, -31.33573291279238 17.568892924097174 M-30.192706595147797 18.074876768247425 C-30.573150186276777 17.906465675912784, -30.953593777405754 17.73805458357814, -31.33573291279238 17.568892924097174 M-31.33573291279238 17.568892924097174 C-31.710893116068853 17.373172086349417, -32.086053319345325 17.177451248601663, -32.44399226407678 16.990714730406097 M-31.33573291279238 17.568892924097174 C-31.59384535955822 17.43423582594835, -31.85195780632406 17.299578727799524, -32.44399226407678 16.990714730406097 M-32.44399226407678 16.990714730406097 C-32.81202313094446 16.76761225612147, -33.18005399781214 16.544509781836844, -33.512930573605686 16.3427180453909 M-32.44399226407678 16.990714730406097 C-32.79959678303831 16.775145181247503, -33.15520130199984 16.55957563208891, -33.512930573605686 16.3427180453909 M-33.512930573605686 16.3427180453909 C-33.81917561444998 16.12909476203207, -34.12542065529427 15.915471478673245, -34.53815534457871 15.627565626425156 M-33.512930573605686 16.3427180453909 C-33.74512271331249 16.180750860167162, -33.97731485301929 16.01878367494343, -34.53815534457871 15.627565626425156 M-34.53815534457871 15.627565626425156 C-34.7655798760572 15.446200614592012, -34.993004407535686 15.26483560275887, -35.515453708501866 14.848196188198125 M-34.53815534457871 15.627565626425156 C-34.74066953969564 15.466065944948467, -34.943183734812564 15.304566263471777, -35.515453708501866 14.848196188198125 M-35.515453708501866 14.848196188198125 C-35.87249114502141 14.523944235043986, -36.22952858154095 14.199692281889847, -36.440809736767974 14.007812326905697 M-35.515453708501866 14.848196188198125 C-35.79882746025711 14.59084364451263, -36.08220121201235 14.333491100827132, -36.440809736767974 14.007812326905697 M-36.440809736767974 14.007812326905697 C-36.75184925769919 13.686638484724627, -37.06288877863041 13.365464642543557, -37.310420942968655 13.109867360095677 M-36.440809736767974 14.007812326905697 C-36.75023155519975 13.688308895371149, -37.05965337363152 13.368805463836601, -37.310420942968655 13.109867360095677 M-37.310420942968655 13.109867360095677 C-37.525095017253065 12.857698977140336, -37.739769091537475 12.605530594184994, -38.120713908126575 12.158051136245307 M-37.310420942968655 13.109867360095677 C-37.51581778396447 12.868596543250643, -37.7212146249603 12.62732572640561, -38.120713908126575 12.158051136245307 M-38.120713908126575 12.158051136245307 C-38.27963801515376 11.945107311112883, -38.43856212218093 11.73216348598046, -38.868358964640635 11.156274872382316 M-38.120713908126575 12.158051136245307 C-38.34350579232351 11.859530308179604, -38.566297676520456 11.561009480113901, -38.868358964640635 11.156274872382316 M-38.868358964640635 11.156274872382316 C-39.044712338072266 10.885348733279887, -39.2210657115039 10.614422594177459, -39.55028387860425 10.108655082055249 M-38.868358964640635 11.156274872382316 C-39.06774039546219 10.849971453229736, -39.267121826283734 10.543668034077157, -39.55028387860425 10.108655082055249 M-39.55028387860425 10.108655082055249 C-39.7116442262978 9.822143445218346, -39.87300457399135 9.535631808381446, -40.163686474273504 9.019496659696289 M-39.55028387860425 10.108655082055249 C-39.72639120322014 9.795958694399388, -39.90249852783604 9.483262306743526, -40.163686474273504 9.019496659696289 M-40.163686474273504 9.019496659696289 C-40.33117553575455 8.671702039839078, -40.498664597235596 8.323907419981866, -40.70604614880834 7.893275190886686 M-40.163686474273504 9.019496659696289 C-40.379705604277916 8.570928314173186, -40.59572473428233 8.12235996865008, -40.70604614880834 7.893275190886686 M-40.70604614880834 7.893275190886686 C-40.80731785704048 7.643132113598022, -40.90858956527262 7.392989036309358, -41.175134229970325 6.73461856121551 M-40.70604614880834 7.893275190886686 C-40.80071553094388 7.659439986703913, -40.89538491307942 7.42560478252114, -41.175134229970325 6.73461856121551 M-41.175134229970325 6.73461856121551 C-41.31456683772542 6.314669762226266, -41.45399944548052 5.894720963237023, -41.56902313421488 5.5482879393051325 M-41.175134229970325 6.73461856121551 C-41.28853060992638 6.3930867320474185, -41.40192698988245 6.051554902879328, -41.56902313421488 5.5482879393051325 M-41.56902313421488 5.5482879393051325 C-41.656726652763155 5.213836412135175, -41.744430171311436 4.879384884965216, -41.88609428754556 4.339158212148136 M-41.56902313421488 5.5482879393051325 C-41.642978323829595 5.266264748922302, -41.71693351344431 4.984241558539471, -41.88609428754556 4.339158212148136 M-41.88609428754556 4.339158212148136 C-41.98161409461754 3.8486841909518876, -42.07713390168952 3.3582101697556395, -42.125044776581774 3.112197953150904 M-41.88609428754556 4.339158212148136 C-41.948588198385295 4.018265188078842, -42.01108210922502 3.6973721640095474, -42.125044776581774 3.112197953150904 M-42.125044776581774 3.112197953150904 C-42.17969883605616 2.6883118605323495, -42.23435289553055 2.264425767913795, -42.28489270250937 1.872449005199809 M-42.125044776581774 3.112197953150904 C-42.183841821817275 2.6561796810942306, -42.242638867052776 2.200161409037557, -42.28489270250937 1.872449005199809 M-42.28489270250937 1.872449005199809 C-42.300934476419755 1.622585427858676, -42.31697625033014 1.372721850517543, -42.36498121591342 0.6250057626472781 M-42.28489270250937 1.872449005199809 C-42.31137692339649 1.4599358872046322, -42.3378611442836 1.0474227692094553, -42.36498121591342 0.6250057626472781 M-42.36498121591342 0.6250057626472781 C-42.36498121591342 0.3143626642343135, -42.36498121591342 0.0037195658213489136, -42.36498121591342 -0.6250057626472687 M-42.36498121591342 0.6250057626472781 C-42.36498121591342 0.16141566755111625, -42.36498121591342 -0.30217442754504564, -42.36498121591342 -0.6250057626472687 M-42.36498121591342 -0.6250057626472687 C-42.34604206167613 -0.9199983773031047, -42.32710290743885 -1.2149909919589408, -42.28489270250937 -1.8724490051997822 M-42.36498121591342 -0.6250057626472687 C-42.33664138637411 -1.0664214832206023, -42.308301556834806 -1.5078372037939358, -42.28489270250937 -1.8724490051997822 M-42.28489270250937 -1.8724490051997822 C-42.23273212461327 -2.2769961470907676, -42.18057154671717 -2.6815432889817528, -42.125044776581774 -3.112197953150895 M-42.28489270250937 -1.8724490051997822 C-42.224690511063955 -2.3393653137830506, -42.16448831961854 -2.8062816223663187, -42.125044776581774 -3.112197953150895 M-42.125044776581774 -3.112197953150895 C-42.050412586202285 -3.49541847723056, -41.975780395822795 -3.8786390013102245, -41.88609428754556 -4.339158212148126 M-42.125044776581774 -3.112197953150895 C-42.0413210209851 -3.542101743117786, -41.957597265388436 -3.9720055330846766, -41.88609428754556 -4.339158212148126 M-41.88609428754556 -4.339158212148126 C-41.78350943116831 -4.730358730072565, -41.68092457479107 -5.121559247997005, -41.56902313421489 -5.548287939305123 M-41.88609428754556 -4.339158212148126 C-41.817411069298544 -4.6010770908190874, -41.74872785105153 -4.86299596949005, -41.56902313421489 -5.548287939305123 M-41.56902313421489 -5.548287939305123 C-41.44258043145648 -5.929113214104632, -41.31613772869807 -6.309938488904141, -41.17513422997033 -6.734618561215485 M-41.56902313421489 -5.548287939305123 C-41.416609233618516 -6.0073343240441535, -41.26419533302214 -6.466380708783184, -41.17513422997033 -6.734618561215485 M-41.17513422997033 -6.734618561215485 C-41.02320847231396 -7.109878119911416, -40.871282714657596 -7.485137678607347, -40.70604614880834 -7.893275190886676 M-41.17513422997033 -6.734618561215485 C-40.99260164065815 -7.18547758584411, -40.81006905134597 -7.636336610472734, -40.70604614880834 -7.893275190886676 M-40.70604614880834 -7.893275190886676 C-40.49840302250552 -8.324450585505655, -40.2907598962027 -8.755625980124636, -40.163686474273504 -9.019496659696282 M-40.70604614880834 -7.893275190886676 C-40.493624935105146 -8.334372386227233, -40.281203721401944 -8.775469581567789, -40.163686474273504 -9.019496659696282 M-40.163686474273504 -9.019496659696282 C-39.97339070433695 -9.357386068754861, -39.78309493440039 -9.695275477813441, -39.55028387860425 -10.108655082055243 M-40.163686474273504 -9.019496659696282 C-40.00761622147341 -9.296615197369654, -39.851545968673314 -9.573733735043026, -39.55028387860425 -10.108655082055243 M-39.55028387860425 -10.108655082055243 C-39.30653051565786 -10.483125704483683, -39.06277715271147 -10.857596326912123, -38.86835896464064 -11.156274872382308 M-39.55028387860425 -10.108655082055243 C-39.402565406760225 -10.335590322771395, -39.254846934916195 -10.562525563487547, -38.86835896464064 -11.156274872382308 M-38.86835896464064 -11.156274872382308 C-38.60200553058048 -11.513164208725907, -38.335652096520306 -11.870053545069505, -38.12071390812659 -12.158051136245302 M-38.86835896464064 -11.156274872382308 C-38.622571702358094 -11.485607412160693, -38.37678444007554 -11.81493995193908, -38.12071390812659 -12.158051136245302 M-38.12071390812659 -12.158051136245302 C-37.80636958891892 -12.527297860285103, -37.49202526971124 -12.896544584324904, -37.31042094296866 -13.10986736009567 M-38.12071390812659 -12.158051136245302 C-37.95391494129044 -12.353982693821123, -37.787115974454295 -12.549914251396945, -37.31042094296866 -13.10986736009567 M-37.31042094296866 -13.10986736009567 C-36.964221223479385 -13.467346993993926, -36.6180215039901 -13.824826627892184, -36.440809736767996 -14.007812326905677 M-37.31042094296866 -13.10986736009567 C-36.99336091903634 -13.437257865917866, -36.67630089510403 -13.76464837174006, -36.440809736767996 -14.007812326905677 M-36.440809736767996 -14.007812326905677 C-36.208570543537206 -14.218725817485549, -35.97633135030642 -14.429639308065418, -35.51545370850189 -14.848196188198107 M-36.440809736767996 -14.007812326905677 C-36.209871273846716 -14.21754452863389, -35.97893281092543 -14.427276730362104, -35.51545370850189 -14.848196188198107 M-35.51545370850189 -14.848196188198107 C-35.13520737004446 -15.151432524337876, -34.75496103158704 -15.454668860477646, -34.53815534457872 -15.627565626425149 M-35.51545370850189 -14.848196188198107 C-35.13167053109039 -15.154253059284512, -34.74788735367889 -15.460309930370917, -34.53815534457872 -15.627565626425149 M-34.53815534457872 -15.627565626425149 C-34.23373742381659 -15.839914389909413, -33.929319503054465 -16.052263153393678, -33.512930573605715 -16.342718045390885 M-34.53815534457872 -15.627565626425149 C-34.173799993441186 -15.881724146689754, -33.80944464230365 -16.13588266695436, -33.512930573605715 -16.342718045390885 M-33.512930573605715 -16.342718045390885 C-33.22452548748807 -16.517550903451813, -32.936120401370424 -16.69238376151274, -32.44399226407679 -16.99071473040609 M-33.512930573605715 -16.342718045390885 C-33.291338889462295 -16.477048226535903, -33.06974720531888 -16.611378407680924, -32.44399226407679 -16.99071473040609 M-32.44399226407679 -16.99071473040609 C-32.01453552889691 -17.214762034069267, -31.585078793717027 -17.438809337732444, -31.335732912792388 -17.56889292409717 M-32.44399226407679 -16.99071473040609 C-32.17742222085887 -17.129784151206618, -31.91085217764095 -17.268853572007146, -31.335732912792388 -17.56889292409717 M-31.335732912792388 -17.56889292409717 C-31.098029306315656 -17.674117259457464, -30.860325699838924 -17.779341594817758, -30.192706595147804 -18.07487676824742 M-31.335732912792388 -17.56889292409717 C-30.96245686349022 -17.734131158282654, -30.589180814188055 -17.89936939246814, -30.192706595147804 -18.07487676824742 M-30.192706595147804 -18.07487676824742 C-29.78408587117104 -18.225252971919435, -29.375465147194273 -18.375629175591452, -29.01961025146062 -18.506587066708033 M-30.192706595147804 -18.07487676824742 C-29.793225742934407 -18.221889414622467, -29.39374489072101 -18.368902060997517, -29.01961025146062 -18.506587066708033 M-29.01961025146062 -18.506587066708033 C-28.678118165680985 -18.60794012523889, -28.33662607990135 -18.70929318376975, -27.821264386235413 -18.862249829261067 M-29.01961025146062 -18.506587066708033 C-28.667495795122303 -18.61109278906275, -28.315381338783986 -18.71559851141746, -27.821264386235413 -18.862249829261067 M-27.821264386235413 -18.862249829261067 C-27.495830221950758 -18.936528053602654, -27.1703960576661 -19.010806277944237, -26.602593259676766 -19.140403561325773 M-27.821264386235413 -18.862249829261067 C-27.459141488079812 -18.944902017692332, -27.09701858992421 -19.027554206123597, -26.602593259676766 -19.140403561325773 M-26.602593259676766 -19.140403561325773 C-26.146384309575552 -19.21415988642489, -25.69017535947434 -19.287916211524006, -25.368604652847882 -19.3399052695533 M-26.602593259676766 -19.140403561325773 C-26.193557984939616 -19.206533212429346, -25.784522710202463 -19.27266286353292, -25.368604652847882 -19.3399052695533 M-25.368604652847882 -19.3399052695533 C-25.00834966706324 -19.374658634761932, -24.648094681278597 -19.40941199997057, -24.124369289623903 -19.45993515863156 M-25.368604652847882 -19.3399052695533 C-24.931736274846966 -19.382049436567954, -24.49486789684605 -19.424193603582605, -24.124369289623903 -19.45993515863156 M-24.124369289623903 -19.45993515863156 C-23.67515793010268 -19.474340492594536, -23.22594657058146 -19.488745826557512, -22.875000000000007 -19.5 M-24.124369289623903 -19.45993515863156 C-23.643580817679684 -19.47535310912882, -23.16279234573546 -19.490771059626084, -22.875000000000007 -19.5 M-22.875000000000007 -19.5 C-22.875000000000004 -19.5, -22.875000000000004 -19.5, -22.875 -19.5 M-22.875000000000007 -19.5 C-22.875000000000004 -19.5, -22.875000000000004 -19.5, -22.875 -19.5" stroke="#218bff" stroke-width="1.3" fill="none" stroke-dasharray="0 0" style="fill:#218bff !important;stroke:#218bff !important"/></g><g class="label" style="color:#1f2328 !important;font-weight:bold !important" transform="translate(-30, -12)"><rect/><foreignObject width="60" height="24"><div style="color: rgb(31, 35, 40) !important; font-weight: bold !important; display: table-cell; white-space: nowrap; line-height: 1.5; max-width: 600px; text-align: center;" xmlns="http://www.w3.org/1999/xhtml"><span style="color:#1f2328 !important;font-weight:bold !important" class="nodeLabel "><p>uplink</p></span></div></foreignObject></g></g><g class="node default core__default_c " id="my-svg-flowchart-core__default-1" data-look="classic" transform="translate(250.72996520996094, 70.5)"><polygon points="-19.5,0 154.5,0 135,-39 0,-39" class="label-container" transform="translate(-67.5,19.5)" style="fill:#4d2d00 !important;stroke:#4d2d00 !important;stroke-width:3px !important"/><g class="label" style="color:#1f2328 !important" transform="translate(-60, -12)"><rect/><foreignObject width="120" height="24"><div style="color: rgb(31, 35, 40) !important; display: table-cell; white-space: nowrap; line-height: 1.5; max-width: 600px; text-align: center;" xmlns="http://www.w3.org/1999/xhtml"><span style="color:#1f2328 !important" class="nodeLabel "><p>core/default</p></span></div></foreignObject></g></g><g class="node default disk__impermanence_c " id="my-svg-flowchart-disk__impermanence-2" data-look="classic" transform="translate(250.72996520996094, 139.5)"><polygon points="-19.5,0 204.5,0 185,-39 0,-39" class="label-container" transform="translate(-92.5,19.5)" style="fill:#4d2d00 !important;stroke:#4d2d00 !important;stroke-width:3px !important"/><g class="label" style="color:#1f2328 !important" transform="translate(-85, -12)"><rect/><foreignObject width="170" height="24"><div style="color: rgb(31, 35, 40) !important; display: table-cell; white-space: nowrap; line-height: 1.5; max-width: 600px; text-align: center;" xmlns="http://www.w3.org/1999/xhtml"><span style="color:#1f2328 !important" class="nodeLabel "><p>disk/impermanence</p></span></div></foreignObject></g></g><g class="node default core__persist_home_collector_c " id="my-svg-flowchart-core__persist_home_collector-3" data-look="classic" transform="translate(554.7299652099609, 139.5)"><polygon points="-19.5,0 304.5,0 285,-39 0,-39" class="label-container" transform="translate(-142.5,19.5)" style="fill:#a475f9 !important;stroke:#a475f9 !important;stroke-width:3px !important"/><g class="label" style="color:#1f2328 !important" transform="translate(-135, -12)"><rect/><foreignObject width="270" height="24"><div style="color: rgb(31, 35, 40) !important; display: table-cell; white-space: nowrap; line-height: 1.5; max-width: 600px; text-align: center;" xmlns="http://www.w3.org/1999/xhtml"><span style="color:#1f2328 !important" class="nodeLabel "><p>core/persist-home-collector</p></span></div></foreignObject></g></g><g class="node default apps__zsh_c " id="my-svg-flowchart-apps__zsh-4" data-look="classic" transform="translate(459.72996520996094, 70.5)"><polygon points="-19.5,0 114.5,0 95,-39 0,-39" class="label-container" transform="translate(-47.5,19.5)" style="fill:#4d2d00 !important;stroke:#4d2d00 !important;stroke-width:3px !important"/><g class="label" style="color:#1f2328 !important" transform="translate(-40, -12)"><rect/><foreignObject width="80" height="24"><div style="color: rgb(31, 35, 40) !important; display: table-cell; white-space: nowrap; line-height: 1.5; max-width: 600px; text-align: center;" xmlns="http://www.w3.org/1999/xhtml"><span style="color:#1f2328 !important" class="nodeLabel "><p>apps/zsh</p></span></div></foreignObject></g></g></g><g class="edges edgePaths"><path d="M337.73,70.5L388.73,70.5" id="my-svg-L_core__default_apps__zsh_0_0" class=" edge-thickness-normal edge-pattern-solid edge-thickness-normal edge-pattern-solid flowchart-link" style=";" data-edge="true" data-et="edge" data-id="L_core__default_apps__zsh_0_0" data-points="W3sieCI6MzM3LjcyOTk2NTIwOTk2MDk0LCJ5Ijo3MC41fSx7IngiOjM5Mi43Mjk5NjUyMDk5NjA5NCwieSI6NzAuNX1d" data-look="classic" marker-end="url(#my-svg_flowchart-v2-pointEnd)"/><path d="M362.73,139.5L388.73,139.5" id="my-svg-L_disk__impermanence_core__persist_home_collector_0_0" class=" edge-thickness-normal edge-pattern-solid edge-thickness-normal edge-pattern-solid flowchart-link" style=";" data-edge="true" data-et="edge" data-id="L_disk__impermanence_core__persist_home_collector_0_0" data-points="W3sieCI6MzYyLjcyOTk2NTIwOTk2MDk0LCJ5IjoxMzkuNX0seyJ4IjozOTIuNzI5OTY1MjA5OTYwOTQsInkiOjEzOS41fV0=" data-look="classic" marker-end="url(#my-svg_flowchart-v2-pointEnd)"/><path d="M108.73,70.5L159.73,70.5" id="my-svg-L_uplink_core__default_0_0" class=" edge-thickness-normal edge-pattern-solid edge-thickness-normal edge-pattern-solid flowchart-link" style=";" data-edge="true" data-et="edge" data-id="L_uplink_core__default_0_0" data-points="W3sieCI6MTA4LjcyOTk2NTIwOTk2MDk0LCJ5Ijo3MC41fSx7IngiOjE2My43Mjk5NjUyMDk5NjA5NCwieSI6NzAuNX1d" data-look="classic" marker-end="url(#my-svg_flowchart-v2-pointEnd)"/><path d="M108.73,83.5L110.397,83.5C112.063,83.5,115.397,83.5,117.535,83.862C119.673,84.224,120.616,84.948,121.449,85.781C122.282,86.614,123.006,87.557,123.368,95.695C123.73,103.833,123.73,119.167,124.092,127.305C124.454,135.443,125.178,136.386,126.011,137.219C126.844,138.052,127.787,138.776,129.259,139.138C130.73,139.5,132.73,139.5,133.73,139.5L134.73,139.5" id="my-svg-L_uplink_disk__impermanence_0_0" class=" edge-thickness-normal edge-pattern-solid edge-thickness-normal edge-pattern-solid flowchart-link" style=";" data-edge="true" data-et="edge" data-id="L_uplink_disk__impermanence_0_0" data-points="W3sieCI6MTA4LjcyOTk2NTIwOTk2MDk0LCJ5Ijo4My41fSx7IngiOjEyMy43Mjk5NjUyMDk5NjA5NCwieSI6ODMuNX0seyJ4IjoxMjMuNzI5OTY1MjA5OTYwOTQsInkiOjEzOS41fSx7IngiOjEzOC43Mjk5NjUyMDk5NjA5NCwieSI6MTM5LjV9XQ==" data-look="classic" marker-end="url(#my-svg_flowchart-v2-pointEnd)"/></g><g class="edgeLabels"><g class="edgeLabel"><g class="label" data-id="L_core__default_apps__zsh_0_0" transform="translate(0, 0)"><foreignObject width="0" height="0"><div xmlns="http://www.w3.org/1999/xhtml" class="labelBkg" style="display: table-cell; white-space: nowrap; line-height: 1.5; max-width: 200px; text-align: center;"><span class="edgeLabel "></span></div></foreignObject></g></g><g class="edgeLabel"><g class="label" data-id="L_disk__impermanence_core__persist_home_collector_0_0" transform="translate(0, 0)"><foreignObject width="0" height="0"><div xmlns="http://www.w3.org/1999/xhtml" class="labelBkg" style="display: table-cell; white-space: nowrap; line-height: 1.5; max-width: 200px; text-align: center;"><span class="edgeLabel "></span></div></foreignObject></g></g><g class="edgeLabel"><g class="label" data-id="L_uplink_core__default_0_0" transform="translate(0, 0)"><foreignObject width="0" height="0"><div xmlns="http://www.w3.org/1999/xhtml" class="labelBkg" style="display: table-cell; white-space: nowrap; line-height: 1.5; max-width: 200px; text-align: center;"><span class="edgeLabel "></span></div></foreignObject></g></g><g class="edgeLabel"><g class="label" data-id="L_uplink_disk__impermanence_0_0" transform="translate(0, 0)"><foreignObject width="0" height="0"><div xmlns="http://www.w3.org/1999/xhtml" class="labelBkg" style="display: table-cell; white-space: nowrap; line-height: 1.5; max-width: 200px; text-align: center;"><span class="edgeLabel "></span></div></foreignObject></g></g></g></svg>