<svg id="my-svg" width="100%" xmlns="http://www.w3.org/2000/svg" xmlns:xlink="http://www.w3.org/1999/xlink" class="flowchart" style="max-width: 742.73px; background-color: rgb(30, 30, 46);" viewBox="4 4 742.72998046875 175" role="graphics-document document" aria-roledescription="flowchart-v2"><style>#my-svg{font-family:JetBrains Mono,Fira Code,DejaVu Sans Mono,monospace;font-size:16px;fill:#cdd6f4;}@keyframes edge-animation-frame{from{stroke-dashoffset:0;}}@keyframes dash{to{stroke-dashoffset:0;}}#my-svg .edge-animation-slow{stroke-dasharray:9,5!important;stroke-dashoffset:900;animation:dash 50s linear infinite;stroke-linecap:round;}#my-svg .edge-animation-fast{stroke-dasharray:9,5!important;stroke-dashoffset:900;animation:dash 20s linear infinite;stroke-linecap:round;}#my-svg .error-icon{fill:#313244;}#my-svg .error-text{fill:#cdd6f4;stroke:#cdd6f4;}#my-svg .edge-thickness-normal{stroke-width:1px;}#my-svg .edge-thickness-thick{stroke-width:3.5px;}#my-svg .edge-pattern-solid{stroke-dasharray:0;}#my-svg .edge-thickness-invisible{stroke-width:0;fill:none;}#my-svg .edge-pattern-dashed{stroke-dasharray:3;}#my-svg .edge-pattern-dotted{stroke-dasharray:2;}#my-svg .marker{fill:#a6adc8;stroke:#a6adc8;}#my-svg .marker.cross{stroke:#a6adc8;}#my-svg svg{font-family:JetBrains Mono,Fira Code,DejaVu Sans Mono,monospace;font-size:16px;}#my-svg p{margin:0;}#my-svg .label{font-family:JetBrains Mono,Fira Code,DejaVu Sans Mono,monospace;color:#cdd6f4;}#my-svg .cluster-label text{fill:#cdd6f4;}#my-svg .cluster-label span{color:#cdd6f4;}#my-svg .cluster-label span p{background-color:transparent;}#my-svg .label text,#my-svg span{fill:#cdd6f4;color:#cdd6f4;}#my-svg .node rect,#my-svg .node circle,#my-svg .node ellipse,#my-svg .node polygon,#my-svg .node path{fill:#313244;stroke:#a6adc8;stroke-width:1px;}#my-svg .rough-node .label text,#my-svg .node .label text,#my-svg .image-shape .label,#my-svg .icon-shape .label{text-anchor:middle;}#my-svg .node .katex path{fill:#000;stroke:#000;stroke-width:1px;}#my-svg .rough-node .label,#my-svg .node .label,#my-svg .image-shape .label,#my-svg .icon-shape .label{text-align:center;}#my-svg .node.clickable{cursor:pointer;}#my-svg .root .anchor path{fill:#a6adc8!important;stroke-width:0;stroke:#a6adc8;}#my-svg .arrowheadPath{fill:#e1e1d1;}#my-svg .edgePath .path{stroke:#a6adc8;stroke-width:1px;}#my-svg .flowchart-link{stroke:#a6adc8;fill:none;}#my-svg .edgeLabel{background-color:#1e1e2e;text-align:center;}#my-svg .edgeLabel p{background-color:#1e1e2e;}#my-svg .edgeLabel rect{opacity:0.5;background-color:#1e1e2e;fill:#1e1e2e;}#my-svg .labelBkg{background-color:rgba(30, 30, 46, 0.5);}#my-svg .cluster rect{fill:#313244;stroke:#6c7086;stroke-width:1px;}#my-svg .cluster text{fill:#cdd6f4;}#my-svg .cluster span{color:#cdd6f4;}#my-svg div.mermaidTooltip{position:absolute;text-align:center;max-width:200px;padding:2px;font-family:JetBrains Mono,Fira Code,DejaVu Sans Mono,monospace;font-size:12px;background:#313244;border:1px solid #6c7086;border-radius:2px;pointer-events:none;z-index:100;}#my-svg .flowchartTitleText{text-anchor:middle;font-size:18px;fill:#cdd6f4;}#my-svg rect.text{fill:none;stroke-width:0;}#my-svg .icon-shape,#my-svg .image-shape{background-color:#1e1e2e;text-align:center;}#my-svg .icon-shape p,#my-svg .image-shape p{background-color:#1e1e2e;padding:2px;}#my-svg .icon-shape .label rect,#my-svg .image-shape .label rect{opacity:0.5;background-color:#1e1e2e;fill:#1e1e2e;}#my-svg .label-icon{display:inline-block;height:1em;overflow:visible;vertical-align:-0.125em;}#my-svg .node .label-icon path{fill:currentColor;stroke:revert;stroke-width:revert;}#my-svg .node .neo-node{stroke:#a6adc8;}#my-svg [data-look="neo"].node rect,#my-svg [data-look="neo"].cluster rect,#my-svg [data-look="neo"].node polygon{stroke:url(#my-svg-gradient);filter:drop-shadow( 1px 2px 2px rgba(185,185,185,1));}#my-svg [data-look="neo"].node path{stroke:url(#my-svg-gradient);stroke-width:1px;}#my-svg [data-look="neo"].node .outer-path{filter:drop-shadow( 1px 2px 2px rgba(185,185,185,1));}#my-svg [data-look="neo"].node .neo-line path{stroke:#a6adc8;filter:none;}#my-svg [data-look="neo"].node circle{stroke:url(#my-svg-gradient);filter:drop-shadow( 1px 2px 2px rgba(185,185,185,1));}#my-svg [data-look="neo"].node circle .state-start{fill:#000000;}#my-svg [data-look="neo"].icon-shape .icon{fill:url(#my-svg-gradient);filter:drop-shadow( 1px 2px 2px rgba(185,185,185,1));}#my-svg [data-look="neo"].icon-shape .icon-neo path{stroke:url(#my-svg-gradient);filter:drop-shadow( 1px 2px 2px rgba(185,185,185,1));}#my-svg :root{--mermaid-font-family:JetBrains Mono,Fira Code,DejaVu Sans Mono,monospace;}#my-svg .root&gt;*{fill:#89b4fa!important;stroke:#89b4fa!important;color:#1e1e2e!important;font-weight:bold!important;}#my-svg .root span{fill:#89b4fa!important;stroke:#89b4fa!important;color:#1e1e2e!important;font-weight:bold!important;}#my-svg .root tspan{fill:#1e1e2e!important;}#my-svg .apps_c&gt;*{fill:#a6e3a1!important;stroke:#a6e3a1!important;color:#1e1e2e!important;stroke-dasharray:3 3!important;stroke-width:1px!important;}#my-svg .apps_c span{fill:#a6e3a1!important;stroke:#a6e3a1!important;color:#1e1e2e!important;stroke-dasharray:3 3!important;stroke-width:1px!important;}#my-svg .apps_c tspan{fill:#1e1e2e!important;}#my-svg .axon_01_c&gt;*{fill:#cba6f7!important;stroke:#cba6f7!important;color:#1e1e2e!important;stroke-width:3px!important;}#my-svg .axon_01_c span{fill:#cba6f7!important;stroke:#cba6f7!important;color:#1e1e2e!important;stroke-width:3px!important;}#my-svg .axon_01_c tspan{fill:#1e1e2e!important;}#my-svg .core_c&gt;*{fill:#f9e2af!important;stroke:#f9e2af!important;color:#1e1e2e!important;stroke-dasharray:3 3!important;stroke-width:1px!important;}#my-svg .core_c span{fill:#f9e2af!important;stroke:#f9e2af!important;color:#1e1e2e!important;stroke-dasharray:3 3!important;stroke-width:1px!important;}#my-svg .core_c tspan{fill:#1e1e2e!important;}#my-svg .core__default_c&gt;*{fill:#f2cdcd!important;stroke:#f2cdcd!important;color:#1e1e2e!important;stroke-width:3px!important;}#my-svg .core__default_c span{fill:#f2cdcd!important;stroke:#f2cdcd!important;color:#1e1e2e!important;stroke-width:3px!important;}#my-svg .core__default_c tspan{fill:#1e1e2e!important;}#my-svg .disk_c&gt;*{fill:#a6e3a1!important;stroke:#a6e3a1!important;color:#1e1e2e!important;stroke-dasharray:3 3!important;stroke-width:1px!important;}#my-svg .disk_c span{fill:#a6e3a1!important;stroke:#a6e3a1!important;color:#1e1e2e!important;stroke-dasharray:3 3!important;stroke-width:1px!important;}#my-svg .disk_c tspan{fill:#1e1e2e!important;}#my-svg .disk__impermanence_c&gt;*{fill:#f2cdcd!important;stroke:#f2cdcd!important;color:#1e1e2e!important;stroke-width:3px!important;}#my-svg .disk__impermanence_c span{fill:#f2cdcd!important;stroke:#f2cdcd!important;color:#1e1e2e!important;stroke-width:3px!important;}#my-svg .disk__impermanence_c tspan{fill:#1e1e2e!important;}#my-svg .core__persist_home_collector_c&gt;*{fill:#cba6f7!important;stroke:#cba6f7!important;color:#1e1e2e!important;stroke-width:3px!important;}#my-svg .core__persist_home_collector_c span{fill:#cba6f7!important;stroke:#cba6f7!important;color:#1e1e2e!important;stroke-width:3px!important;}#my-svg .core__persist_home_collector_c tspan{fill:#1e1e2e!important;}#my-svg .apps__zsh_c&gt;*{fill:#f2cdcd!important;stroke:#f2cdcd!important;color:#1e1e2e!important;stroke-width:3px!important;}#my-svg .apps__zsh_c span{fill:#f2cdcd!important;stroke:#f2cdcd!important;color:#1e1e2e!important;stroke-width:3px!important;}#my-svg .apps__zsh_c tspan{fill:#1e1e2e!important;}</style><g><marker id="my-svg_flowchart-v2-pointEnd" class="marker flowchart-v2" viewBox="0 0 10 10" refX="5" refY="5" markerUnits="userSpaceOnUse" markerWidth="8" markerHeight="8" orient="auto"><path d="M 0 0 L 10 5 L 0 10 z" class="arrowMarkerPath" style="stroke-width: 1; stroke-dasharray: 1, 0;"/></marker><marker id="my-svg_flowchart-v2-pointStart" class="marker flowchart-v2" viewBox="0 0 10 10" refX="4.5" refY="5" markerUnits="userSpaceOnUse" markerWidth="8" markerHeight="8" orient="auto"><path d="M 0 5 L 10 10 L 10 0 z" class="arrowMarkerPath" style="stroke-width: 1; stroke-dasharray: 1, 0;"/></marker><marker id="my-svg_flowchart-v2-pointEnd-margin" class="marker flowchart-v2" viewBox="0 0 11.5 14" refX="11.5" refY="7" markerUnits="userSpaceOnUse" markerWidth="10.5" markerHeight="14" orient="auto"><path d="M 0 0 L 11.5 7 L 0 14 z" class="arrowMarkerPath" style="stroke-width: 0; stroke-dasharray: 1, 0;"/></marker><marker id="my-svg_flowchart-v2-pointStart-margin" class="marker flowchart-v2" viewBox="0 0 11.5 14" refX="1" refY="7" markerUnits="userSpaceOnUse" markerWidth="11.5" markerHeight="14" orient="auto"><polygon points="0,7 11.5,14 11.5,0" class="arrowMarkerPath" style="stroke-width: 0; stroke-dasharray: 1, 0;"/></marker><marker id="my-svg_flowchart-v2-circleEnd" class="marker flowchart-v2" viewBox="0 0 10 10" refX="11" refY="5" markerUnits="userSpaceOnUse" markerWidth="11" markerHeight="11" orient="auto"><circle cx="5" cy="5" r="5" class="arrowMarkerPath" style="stroke-width: 1; stroke-dasharray: 1, 0;"/></marker><marker id="my-svg_flowchart-v2-circleStart" class="marker flowchart-v2" viewBox="0 0 10 10" refX="-1" refY="5" markerUnits="userSpaceOnUse" markerWidth="11" markerHeight="11" orient="auto"><circle cx="5" cy="5" r="5" class="arrowMarkerPath" style="stroke-width: 1; stroke-dasharray: 1, 0;"/></marker><marker id="my-svg_flowchart-v2-circleEnd-margin" class="marker flowchart-v2" viewBox="0 0 10 10" refY="5" refX="12.25" markerUnits="userSpaceOnUse" markerWidth="14" markerHeight="14" orient="auto"><circle cx="5" cy="5" r="5" class="arrowMarkerPath" style="stroke-width: 0; stroke-dasharray: 1, 0;"/></marker><marker id="my-svg_flowchart-v2-circleStart-margin" class="marker flowchart-v2" viewBox="0 0 10 10" refX="-2" refY="5" markerUnits="userSpaceOnUse" markerWidth="14" markerHeight="14" orient="auto"><circle cx="5" cy="5" r="5" class="arrowMarkerPath" style="stroke-width: 0; stroke-dasharray: 1, 0;"/></marker><marker id="my-svg_flowchart-v2-crossEnd" class="marker cross flowchart-v2" viewBox="0 0 11 11" refX="12" refY="5.2" markerUnits="userSpaceOnUse" markerWidth="11" markerHeight="11" orient="auto"><path d="M 1,1 l 9,9 M 10,1 l -9,9" class="arrowMarkerPath" style="stroke-width: 2; stroke-dasharray: 1, 0;"/></marker><marker id="my-svg_flowchart-v2-crossStart" class="marker cross flowchart-v2" viewBox="0 0 11 11" refX="-1" refY="5.2" markerUnits="userSpaceOnUse" markerWidth="11" markerHeight="11" orient="auto"><path d="M 1,1 l 9,9 M 10,1 l -9,9" class="arrowMarkerPath" style="stroke-width: 2; stroke-dasharray: 1, 0;"/></marker><marker id="my-svg_flowchart-v2-crossEnd-margin" class="marker cross flowchart-v2" viewBox="0 0 15 15" refX="17.7" refY="7.5" markerUnits="userSpaceOnUse" markerWidth="12" markerHeight="12" orient="auto"><path d="M 1,1 L 14,14 M 1,14 L 14,1" class="arrowMarkerPath" style="stroke-width: 2.5;"/></marker><marker id="my-svg_flowchart-v2-crossStart-margin" class="marker cross flowchart-v2" viewBox="0 0 15 15" refX="-3.5" refY="7.5" markerUnits="userSpaceOnUse" markerWidth="12" markerHeight="12" orient="auto"><path d="M 1,1 L 14,14 M 1,14 L 14,1" class="arrowMarkerPath" style="stroke-width: 2.5; stroke-dasharray: 1, 0;"/></marker></g><defs><filter id="my-svg-drop-shadow" height="130%" width="130%"><feDropShadow dx="4" dy="4" stdDeviation="0" flood-opacity="0.06" flood-color="#000000"/></filter></defs><defs><filter id="my-svg-drop-shadow-small" height="150%" width="150%"><feDropShadow dx="2" dy="2" stdDeviation="0" flood-opacity="0.06" flood-color="#000000"/></filter></defs><linearGradient id="my-svg-gradient" gradientUnits="objectBoundingBox" x1="0%" y1="0%" x2="100%" y2="0%"><stop offset="0%" stop-color="#a6adc8" stop-opacity="1"/><stop offset="100%" stop-color="#6c7086" stop-opacity="1"/></linearGradient><g class="subgraphs"><g class="subgraph"><g class="cluster " id="[object Object]" data-look="classic"><rect style="fill:#313244 !important;stroke:#6c7086 !important;stroke-width:2px !important" x="12" y="12" width="726.7299652099609" height="159"/><g class="cluster-label " transform="translate(310.36498260498047, 12)"><foreignObject width="130" height="24"><div xmlns="http://www.w3.org/1999/xhtml" style="display: table-cell; white-space: nowrap; line-height: 1.5;"><span class="nodeLabel "><p>host: axon-01</p></span></div></foreignObject></g></g></g></g><g class="nodes"><g class="node default root " id="my-svg-flowchart-axon_01-0" data-look="classic" transform="translate(71.36498260498047, 77)"><g class="basic label-container outer-path"><path d="M-27.875 -19.5 C-15.479259580035691 -19.5, -3.0835191600713827 -19.5, 27.875 -19.5 C27.875 -19.5, 27.875 -19.5, 27.875 -19.5 C28.15058001111583 -19.491162685427465, 28.426160022231663 -19.482325370854934, 29.1243692896239 -19.45993515863156 C29.542699608899998 -19.419579335846812, 29.961029928176096 -19.379223513062062, 30.368604652847864 -19.3399052695533 C30.659850571215514 -19.29281888811745, 30.951096489583165 -19.2457325066816, 31.60259325967676 -19.140403561325776 C32.03350886288939 -19.0420498868796, 32.46442446610202 -18.94369621243342, 32.82126438623539 -18.862249829261074 C33.07885365549493 -18.78579868625851, 33.336442924754465 -18.709347543255944, 34.019610251460605 -18.50658706670804 C34.40730555686771 -18.363911610502107, 34.795000862274826 -18.22123615429617, 35.1927065951478 -18.074876768247425 C35.489641931706124 -17.943432303026853, 35.78657726826445 -17.81198783780628, 36.33573291279238 -17.568892924097174 C36.63268233795579 -17.413974599194606, 36.92963176311921 -17.259056274292035, 37.44399226407678 -16.990714730406097 C37.83951074932797 -16.75094910032221, 38.23502923457916 -16.511183470238326, 38.5129305736057 -16.342718045390892 C38.7213329826853 -16.197345546411853, 38.92973539176489 -16.051973047432814, 39.53815534457871 -15.627565626425154 C39.92777085284998 -15.316857626682923, 40.31738636112125 -15.006149626940692, 40.515453708501866 -14.848196188198123 C40.870178417404766 -14.526044593074003, 41.22490312630766 -14.203892997949882, 41.44080973676799 -14.007812326905688 C41.75809118051399 -13.68019318694695, 42.075372624260005 -13.352574046988213, 42.31042094296865 -13.10986736009568 C42.59694467095119 -12.773300285545405, 42.88346839893373 -12.436733210995131, 43.12071390812658 -12.158051136245305 C43.32526976229584 -11.883964927080182, 43.5298256164651 -11.609878717915057, 43.868358964640635 -11.156274872382312 C44.02893906902291 -10.909580710255492, 44.18951917340518 -10.662886548128673, 44.55028387860425 -10.108655082055241 C44.76223347605843 -9.732317109551325, 44.974183073512606 -9.355979137047406, 45.163686474273504 -9.019496659696287 C45.27745475244196 -8.783254395828296, 45.39122303061041 -8.547012131960305, 45.70604614880834 -7.893275190886684 C45.88331652823073 -7.4554139264237484, 46.060586907653125 -7.017552661960813, 46.175134229970325 -6.734618561215508 C46.286365729860236 -6.3996070058798615, 46.39759722975015 -6.064595450544214, 46.56902313421488 -5.548287939305138 C46.68215605923285 -5.1168630640917385, 46.79528898425083 -4.68543818887834, 46.88609428754556 -4.339158212148133 C46.97828590660714 -3.865773732972503, 47.07047752566872 -3.3923892537968734, 47.125044776581774 -3.1121979531509023 C47.16240601187996 -2.822431589988589, 47.199767247178144 -2.5326652268262757, 47.28489270250937 -1.872449005199798 C47.3012778613774 -1.617236929968044, 47.317663020245426 -1.36202485473629, 47.36498121591342 -0.6250057626472757 C47.36498121591342 -0.2548858054431895, 47.36498121591342 0.11523415176089669, 47.36498121591342 0.625005762647271 C47.346876549932766 0.9070005491192377, 47.328771883952115 1.1889953355912044, 47.28489270250937 1.8724490051997846 C47.232264905581474 2.280619805638512, 47.17963710865359 2.6887906060772395, 47.125044776581774 3.1121979531508885 C47.04426899702437 3.526964509211115, 46.96349321746696 3.941731065271341, 46.88609428754556 4.339158212148129 C46.76488678403775 4.8013749546877325, 46.64367928052994 5.263591697227336, 46.56902313421489 5.548287939305125 C46.43507714446769 5.951711919028433, 46.30113115472049 6.355135898751741, 46.175134229970325 6.734618561215495 C46.0203469136596 7.11694622511216, 45.86555959734888 7.499273889008824, 45.70604614880834 7.893275190886679 C45.50434965782712 8.31210227002274, 45.30265316684591 8.7309293491588, 45.163686474273504 9.019496659696284 C45.01743479621613 9.27918132367545, 44.871183118158754 9.538865987654617, 44.55028387860425 10.108655082055236 C44.318740071309335 10.464368548278252, 44.08719626401442 10.820082014501269, 43.86835896464064 11.156274872382301 C43.597793806238826 11.51880753564773, 43.32722864783701 11.881340198913158, 43.12071390812658 12.158051136245302 C42.91604150656352 12.39847098531084, 42.711369105000465 12.63889083437638, 42.31042094296866 13.10986736009567 C42.120432253692414 13.306046280134877, 41.93044356441616 13.502225200174085, 41.44080973676799 14.007812326905684 C41.19725712803612 14.229000362107062, 40.95370451930425 14.45018839730844, 40.51545370850189 14.848196188198111 C40.211903486887735 15.090269412124755, 39.90835326527358 15.332342636051397, 39.53815534457871 15.627565626425152 C39.19642426393255 15.865942434983861, 38.85469318328639 16.10431924354257, 38.51293057360571 16.34271804539089 C38.19798725129906 16.533638538185578, 37.88304392899241 16.724559030980267, 37.44399226407678 16.990714730406093 C37.19476585767885 17.120735986986762, 36.94553945128092 17.250757243567428, 36.33573291279239 17.56889292409717 C36.00299269477631 17.716187148225014, 35.67025247676023 17.86348137235286, 35.192706595147804 18.07487676824742 C34.92824550390726 18.17220089447547, 34.66378441266673 18.269525020703515, 34.01961025146062 18.506587066708033 C33.7641069033772 18.58241911925475, 33.50860355529378 18.658251171801467, 32.82126438623541 18.86224982926107 C32.45684458032731 18.94542627189812, 32.0924247744192 19.02860271453517, 31.602593259676766 19.140403561325773 C31.163990286696748 19.211313488580327, 30.72538731371673 19.28222341583488, 30.36860465284788 19.3399052695533 C29.970415293629245 19.378318118144353, 29.57222593441061 19.416730966735404, 29.1243692896239 19.45993515863156 C28.82991957888244 19.469377587743445, 28.53546986814098 19.47882001685533, 27.875000000000004 19.5 C27.875000000000004 19.5, 27.875 19.5, 27.875 19.5 C11.889577825207866 19.5, -4.095844349584269 19.5, -27.874999999999996 19.5 C-28.268029490791363 19.487396309215818, -28.66105898158273 19.474792618431632, -29.124369289623893 19.45993515863156 C-29.480999967090145 19.42553142608753, -29.837630644556395 19.391127693543503, -30.36860465284787 19.3399052695533 C-30.753738059133916 19.277639887179145, -31.13887146541996 19.215374504804988, -31.60259325967676 19.140403561325773 C-32.029517453974336 19.04296089991808, -32.45644164827192 18.945518238510385, -32.821264386235384 18.862249829261074 C-33.213580001825 18.745812613860767, -33.60589561741462 18.629375398460457, -34.01961025146059 18.506587066708043 C-34.29824344326947 18.404047476465387, -34.57687663507835 18.30150788622273, -35.1927065951478 18.074876768247425 C-35.56136584770983 17.911682253026388, -35.93002510027186 17.748487737805352, -36.33573291279238 17.568892924097174 C-36.68840939104842 17.384901831291067, -37.04108586930445 17.20091073848496, -37.44399226407678 16.990714730406097 C-37.71123169797997 16.828712615100752, -37.978471131883154 16.666710499795407, -38.512930573605686 16.3427180453909 C-38.7871271081479 16.151450412670926, -39.06132364269011 15.960182779950951, -39.53815534457871 15.627565626425156 C-39.90497648937795 15.335035524968383, -40.27179763417719 15.042505423511608, -40.515453708501866 14.848196188198125 C-40.82029513053264 14.571347274371814, -41.125136552563426 14.294498360545504, -41.440809736767974 14.007812326905697 C-41.779938758892705 13.65763376855139, -42.11906778101743 13.307455210197084, -42.310420942968655 13.109867360095677 C-42.582701312908256 12.790031344372663, -42.854981682847864 12.47019532864965, -43.120713908126575 12.158051136245307 C-43.27564063362908 11.950463438187002, -43.43056735913158 11.742875740128698, -43.868358964640635 11.156274872382316 C-44.12100165633952 10.768147853871037, -44.37364434803842 10.380020835359758, -44.55028387860425 10.108655082055249 C-44.77920681769908 9.702179222731141, -45.008129756793906 9.295703363407036, -45.163686474273504 9.019496659696289 C-45.344083923118255 8.644897497283091, -45.52448137196301 8.270298334869892, -45.70604614880834 7.893275190886686 C-45.87920456588094 7.465570552927117, -46.05236298295354 7.037865914967548, -46.175134229970325 6.73461856121551 C-46.3100693775404 6.328215395730583, -46.44500452511048 5.921812230245656, -46.56902313421488 5.5482879393051325 C-46.64756186018374 5.24878573828671, -46.726100586152604 4.949283537268288, -46.88609428754556 4.339158212148136 C-46.9766337451356 3.8742572329444123, -47.06717320272564 3.4093562537406887, -47.125044776581774 3.112197953150904 C-47.173553730643874 2.7359720846216957, -47.22206268470598 2.3597462160924874, -47.28489270250937 1.872449005199809 C-47.307341800295674 1.5227861865925294, -47.329790898081974 1.1731233679852497, -47.36498121591342 0.6250057626472781 C-47.36498121591342 0.1659449611922198, -47.36498121591342 -0.29311584026283855, -47.36498121591342 -0.6250057626472687 C-47.34239764099785 -0.9767631710908, -47.31981406608228 -1.3285205795343313, -47.28489270250937 -1.8724490051997822 C-47.23313523059657 -2.2738697366865797, -47.181377758683766 -2.675290468173377, -47.125044776581774 -3.112197953150895 C-47.070728406942 -3.391101031482332, -47.01641203730223 -3.6700041098137692, -46.88609428754556 -4.339158212148126 C-46.82239370546235 -4.582076139638313, -46.758693123379146 -4.8249940671285, -46.56902313421489 -5.548287939305123 C-46.44257738837913 -5.929122379368755, -46.316131642543375 -6.309956819432387, -46.17513422997033 -6.734618561215485 C-45.99490081858647 -7.179798571909569, -45.81466740720261 -7.624978582603655, -45.70604614880834 -7.893275190886676 C-45.57136659841184 -8.172940158965748, -45.436687048015344 -8.452605127044821, -45.163686474273504 -9.019496659696282 C-44.93346940680049 -9.428270375000569, -44.70325233932748 -9.837044090304854, -44.55028387860425 -10.108655082055243 C-44.36786183281604 -10.388904331564081, -44.185439787027825 -10.669153581072917, -43.86835896464064 -11.156274872382308 C-43.65530176964162 -11.44175210377124, -43.442244574642594 -11.727229335160171, -43.12071390812659 -12.158051136245302 C-42.83745868270893 -12.490778841699806, -42.554203457291266 -12.82350654715431, -42.31042094296866 -13.10986736009567 C-42.03749885380169 -13.391681824480814, -41.764576764634704 -13.673496288865959, -41.440809736767996 -14.007812326905677 C-41.10074457509966 -14.316650509101738, -40.760679413431326 -14.625488691297797, -40.51545370850189 -14.848196188198107 C-40.14888221288903 -15.140527201072185, -39.782310717276175 -15.432858213946265, -39.53815534457872 -15.627565626425149 C-39.19074388561278 -15.86990482100012, -38.84333242664684 -16.11224401557509, -38.512930573605715 -16.342718045390885 C-38.14161175349414 -16.56781369625412, -37.770292933382564 -16.792909347117355, -37.44399226407679 -16.99071473040609 C-37.13028566217344 -17.1543752636804, -36.81657906027009 -17.31803579695471, -36.33573291279239 -17.56889292409717 C-36.02839644447712 -17.70494166180793, -35.72105997616184 -17.84099039951869, -35.192706595147804 -18.07487676824742 C-34.95035161236267 -18.164065642217253, -34.707996629577536 -18.253254516187084, -34.01961025146062 -18.506587066708033 C-33.7164576422497 -18.596561169841316, -33.413305033038775 -18.6865352729746, -32.82126438623541 -18.862249829261067 C-32.53993156569232 -18.926462209681805, -32.25859874514922 -18.99067459010254, -31.602593259676766 -19.140403561325773 C-31.243984424580706 -19.198380656731054, -30.885375589484646 -19.256357752136335, -30.368604652847882 -19.3399052695533 C-29.898299146980513 -19.3852750760792, -29.427993641113147 -19.4306448826051, -29.124369289623903 -19.45993515863156 C-28.829136589828032 -19.469402696678422, -28.53390389003216 -19.47887023472529, -27.875000000000007 -19.5 C-27.875000000000004 -19.5, -27.875000000000004 -19.5, -27.875 -19.5" stroke="none" stroke-width="0" fill="#89b4fa" style="fill:#89b4fa !important;stroke:#89b4fa !important"/><path d="M-27.875 -19.5 C-6.678124667470602 -19.5, 14.518750665058796 -19.5, 27.875 -19.5 M-27.875 -19.5 C-5.8300193304122985 -19.5, 16.214961339175403 -19.5, 27.875 -19.5 M27.875 -19.5 C27.875 -19.5, 27.875 -19.5, 27.875 -19.5 M27.875 -19.5 C27.875 -19.5, 27.875 -19.5, 27.875 -19.5 M27.875 -19.5 C28.27462276886431 -19.487184875621054, 28.674245537728627 -19.474369751242108, 29.1243692896239 -19.45993515863156 M27.875 -19.5 C28.24439495690676 -19.488154222715664, 28.61378991381352 -19.476308445431332, 29.1243692896239 -19.45993515863156 M29.1243692896239 -19.45993515863156 C29.57324661986363 -19.416632502437306, 30.022123950103367 -19.37332984624305, 30.368604652847864 -19.3399052695533 M29.1243692896239 -19.45993515863156 C29.52180958339901 -19.42159457148296, 29.91924987717412 -19.38325398433436, 30.368604652847864 -19.3399052695533 M30.368604652847864 -19.3399052695533 C30.642707970146468 -19.295590370915434, 30.91681128744507 -19.25127547227757, 31.60259325967676 -19.140403561325776 M30.368604652847864 -19.3399052695533 C30.715494321465528 -19.283822838100754, 31.06238399008319 -19.22774040664821, 31.60259325967676 -19.140403561325776 M31.60259325967676 -19.140403561325776 C31.94011364696049 -19.06336673545463, 32.27763403424423 -18.98632990958348, 32.82126438623539 -18.862249829261074 M31.60259325967676 -19.140403561325776 C31.997705244948932 -19.050221829034065, 32.392817230221105 -18.960040096742354, 32.82126438623539 -18.862249829261074 M32.82126438623539 -18.862249829261074 C33.262587080173965 -18.7312675702502, 33.70390977411253 -18.600285311239325, 34.019610251460605 -18.50658706670804 M32.82126438623539 -18.862249829261074 C33.286960633329485 -18.724033627613032, 33.75265688042357 -18.58581742596499, 34.019610251460605 -18.50658706670804 M34.019610251460605 -18.50658706670804 C34.41736907913905 -18.360208141280076, 34.815127906817494 -18.21382921585211, 35.1927065951478 -18.074876768247425 M34.019610251460605 -18.50658706670804 C34.38836669247346 -18.370881287668137, 34.75712313348631 -18.23517550862823, 35.1927065951478 -18.074876768247425 M35.1927065951478 -18.074876768247425 C35.63958606160156 -17.87705648465672, 36.08646552805533 -17.679236201066015, 36.33573291279238 -17.568892924097174 M35.1927065951478 -18.074876768247425 C35.43966008164007 -17.965557785392193, 35.68661356813234 -17.85623880253696, 36.33573291279238 -17.568892924097174 M36.33573291279238 -17.568892924097174 C36.55962611589872 -17.452087983447036, 36.783519319005066 -17.335283042796895, 37.44399226407678 -16.990714730406097 M36.33573291279238 -17.568892924097174 C36.61554574453446 -17.422914749006004, 36.89535857627654 -17.276936573914835, 37.44399226407678 -16.990714730406097 M37.44399226407678 -16.990714730406097 C37.83509898865345 -16.75362353556949, 38.226205713230115 -16.51653234073288, 38.5129305736057 -16.342718045390892 M37.44399226407678 -16.990714730406097 C37.85561067640316 -16.74118922991556, 38.26722908872953 -16.49166372942502, 38.5129305736057 -16.342718045390892 M38.5129305736057 -16.342718045390892 C38.74096285092145 -16.183652600093613, 38.9689951282372 -16.024587154796336, 39.53815534457871 -15.627565626425154 M38.5129305736057 -16.342718045390892 C38.79233197973662 -16.147819719565895, 39.07173338586754 -15.9529213937409, 39.53815534457871 -15.627565626425154 M39.53815534457871 -15.627565626425154 C39.75570619504675 -15.454074612448158, 39.973257045514785 -15.280583598471164, 40.515453708501866 -14.848196188198123 M39.53815534457871 -15.627565626425154 C39.75026907281138 -15.458410572742968, 39.96238280104404 -15.289255519060784, 40.515453708501866 -14.848196188198123 M40.515453708501866 -14.848196188198123 C40.88442645136563 -14.513104905613067, 41.25339919422939 -14.17801362302801, 41.44080973676799 -14.007812326905688 M40.515453708501866 -14.848196188198123 C40.705866802026385 -14.675268054713532, 40.89627989555091 -14.502339921228941, 41.44080973676799 -14.007812326905688 M41.44080973676799 -14.007812326905688 C41.67951895805357 -13.761325457536776, 41.91822817933915 -13.514838588167866, 42.31042094296865 -13.10986736009568 M41.44080973676799 -14.007812326905688 C41.71929801835572 -13.720250311853214, 41.997786299943456 -13.43268829680074, 42.31042094296865 -13.10986736009568 M42.31042094296865 -13.10986736009568 C42.58822465874869 -12.78354330806121, 42.86602837452873 -12.457219256026741, 43.12071390812658 -12.158051136245305 M42.31042094296865 -13.10986736009568 C42.50955869615208 -12.875948823947272, 42.7086964493355 -12.642030287798864, 43.12071390812658 -12.158051136245305 M43.12071390812658 -12.158051136245305 C43.349389038324674 -11.85164729451279, 43.578064168522765 -11.545243452780277, 43.868358964640635 -11.156274872382312 M43.12071390812658 -12.158051136245305 C43.33471116421111 -11.87131430864313, 43.54870842029563 -11.584577481040956, 43.868358964640635 -11.156274872382312 M43.868358964640635 -11.156274872382312 C44.04252037246863 -10.888716181072251, 44.21668178029662 -10.621157489762192, 44.55028387860425 -10.108655082055241 M43.868358964640635 -11.156274872382312 C44.094384508108 -10.80903894125973, 44.32041005157536 -10.46180301013715, 44.55028387860425 -10.108655082055241 M44.55028387860425 -10.108655082055241 C44.76000791234094 -9.736268823294484, 44.96973194607763 -9.363882564533728, 45.163686474273504 -9.019496659696287 M44.55028387860425 -10.108655082055241 C44.729163802502505 -9.791035663617425, 44.90804372640076 -9.473416245179608, 45.163686474273504 -9.019496659696287 M45.163686474273504 -9.019496659696287 C45.366144633543726 -8.599087960061016, 45.56860279281395 -8.178679260425746, 45.70604614880834 -7.893275190886684 M45.163686474273504 -9.019496659696287 C45.380252215348136 -8.569793264590261, 45.596817956422775 -8.120089869484238, 45.70604614880834 -7.893275190886684 M45.70604614880834 -7.893275190886684 C45.86472749656603 -7.501329194030041, 46.02340884432372 -7.109383197173398, 46.175134229970325 -6.734618561215508 M45.70604614880834 -7.893275190886684 C45.88140129700008 -7.460144584591932, 46.05675644519182 -7.027013978297179, 46.175134229970325 -6.734618561215508 M46.175134229970325 -6.734618561215508 C46.30337611764411 -6.348374428112057, 46.4316180053179 -5.962130295008605, 46.56902313421488 -5.548287939305138 M46.175134229970325 -6.734618561215508 C46.275844869470895 -6.4312941611010945, 46.376555508971464 -6.12796976098668, 46.56902313421488 -5.548287939305138 M46.56902313421488 -5.548287939305138 C46.655840155193836 -5.217217011577481, 46.74265717617279 -4.886146083849824, 46.88609428754556 -4.339158212148133 M46.56902313421488 -5.548287939305138 C46.681222187958134 -5.120424320004619, 46.79342124170139 -4.6925607007041, 46.88609428754556 -4.339158212148133 M46.88609428754556 -4.339158212148133 C46.941794330650126 -4.05315026301447, 46.99749437375469 -3.767142313880808, 47.125044776581774 -3.1121979531509023 M46.88609428754556 -4.339158212148133 C46.97962208808127 -3.8589127235048784, 47.07314988861699 -3.378667234861623, 47.125044776581774 -3.1121979531509023 M47.125044776581774 -3.1121979531509023 C47.1764721070123 -2.7133377338067906, 47.22789943744283 -2.3144775144626784, 47.28489270250937 -1.872449005199798 M47.125044776581774 -3.1121979531509023 C47.18654885906041 -2.6351844348014457, 47.248052941539044 -2.158170916451989, 47.28489270250937 -1.872449005199798 M47.28489270250937 -1.872449005199798 C47.311522312578454 -1.4576713333393896, 47.33815192264755 -1.0428936614789812, 47.36498121591342 -0.6250057626472757 M47.28489270250937 -1.872449005199798 C47.314649297406895 -1.4089660205796941, 47.34440589230443 -0.9454830359595903, 47.36498121591342 -0.6250057626472757 M47.36498121591342 -0.6250057626472757 C47.36498121591342 -0.19177862832212494, 47.36498121591342 0.2414485060030258, 47.36498121591342 0.625005762647271 M47.36498121591342 -0.6250057626472757 C47.36498121591342 -0.1671234788395874, 47.36498121591342 0.2907588049681009, 47.36498121591342 0.625005762647271 M47.36498121591342 0.625005762647271 C47.33453073276156 1.099296616925033, 47.304080249609704 1.5735874712027953, 47.28489270250937 1.8724490051997846 M47.36498121591342 0.625005762647271 C47.345600355893424 0.9268783014072368, 47.32621949587344 1.2287508401672025, 47.28489270250937 1.8724490051997846 M47.28489270250937 1.8724490051997846 C47.22779355262768 2.3152987361796686, 47.17069440274599 2.758148467159552, 47.125044776581774 3.1121979531508885 M47.28489270250937 1.8724490051997846 C47.24550708050303 2.1779161119101387, 47.206121458496696 2.483383218620493, 47.125044776581774 3.1121979531508885 M47.125044776581774 3.1121979531508885 C47.06257199478694 3.4329824840402496, 47.00009921299211 3.7537670149296107, 46.88609428754556 4.339158212148129 M47.125044776581774 3.1121979531508885 C47.043748530693335 3.529636993820393, 46.96245228480489 3.9470760344898976, 46.88609428754556 4.339158212148129 M46.88609428754556 4.339158212148129 C46.80316455623457 4.6554052196098485, 46.72023482492358 4.9716522270715675, 46.56902313421489 5.548287939305125 M46.88609428754556 4.339158212148129 C46.7644469634694 4.803052181134276, 46.642799639393246 5.266946150120422, 46.56902313421489 5.548287939305125 M46.56902313421489 5.548287939305125 C46.46861854694929 5.850690558850615, 46.36821395968368 6.153093178396104, 46.175134229970325 6.734618561215495 M46.56902313421489 5.548287939305125 C46.4156818454992 6.010127469300286, 46.26234055678351 6.471966999295448, 46.175134229970325 6.734618561215495 M46.175134229970325 6.734618561215495 C45.99087962861004 7.189730988895775, 45.80662502724976 7.644843416576054, 45.70604614880834 7.893275190886679 M46.175134229970325 6.734618561215495 C46.053860546878305 7.034166903119936, 45.93258686378629 7.333715245024377, 45.70604614880834 7.893275190886679 M45.70604614880834 7.893275190886679 C45.500498862100706 8.320098529742475, 45.29495157539307 8.746921868598273, 45.163686474273504 9.019496659696284 M45.70604614880834 7.893275190886679 C45.56663274305724 8.182770110897863, 45.42721933730614 8.472265030909048, 45.163686474273504 9.019496659696284 M45.163686474273504 9.019496659696284 C44.94878358271176 9.401078504941642, 44.73388069115001 9.782660350187001, 44.55028387860425 10.108655082055236 M45.163686474273504 9.019496659696284 C44.957016376399714 9.386460346087915, 44.750346278525925 9.753424032479545, 44.55028387860425 10.108655082055236 M44.55028387860425 10.108655082055236 C44.32763515252382 10.45070331486906, 44.10498642644338 10.792751547682885, 43.86835896464064 11.156274872382301 M44.55028387860425 10.108655082055236 C44.341834756987964 10.428888909284437, 44.13338563537169 10.749122736513637, 43.86835896464064 11.156274872382301 M43.86835896464064 11.156274872382301 C43.70475729784015 11.3754862014765, 43.541155631039665 11.594697530570697, 43.12071390812658 12.158051136245302 M43.86835896464064 11.156274872382301 C43.718423084633976 11.357175292151565, 43.56848720462731 11.558075711920829, 43.12071390812658 12.158051136245302 M43.12071390812658 12.158051136245302 C42.81905284168675 12.512399389886479, 42.51739177524691 12.866747643527656, 42.31042094296866 13.10986736009567 M43.12071390812658 12.158051136245302 C42.8418276978517 12.485646747909101, 42.56294148757681 12.813242359572898, 42.31042094296866 13.10986736009567 M42.31042094296866 13.10986736009567 C42.00486294964507 13.425381074980075, 41.69930495632149 13.740894789864479, 41.44080973676799 14.007812326905684 M42.31042094296866 13.10986736009567 C42.105568315895965 13.3213945162617, 41.90071568882326 13.53292167242773, 41.44080973676799 14.007812326905684 M41.44080973676799 14.007812326905684 C41.07750899637808 14.337752446916953, 40.71420825598817 14.667692566928222, 40.51545370850189 14.848196188198111 M41.44080973676799 14.007812326905684 C41.23977457872312 14.19038713834323, 41.038739420678255 14.372961949780773, 40.51545370850189 14.848196188198111 M40.51545370850189 14.848196188198111 C40.229530913884666 15.076212008180233, 39.943608119267445 15.304227828162356, 39.53815534457871 15.627565626425152 M40.51545370850189 14.848196188198111 C40.304067443310934 15.016771109463134, 40.09268117811998 15.185346030728155, 39.53815534457871 15.627565626425152 M39.53815534457871 15.627565626425152 C39.222793206940665 15.847548601834548, 38.90743106930261 16.067531577243944, 38.51293057360571 16.34271804539089 M39.53815534457871 15.627565626425152 C39.209785945841475 15.85662190410208, 38.881416547104244 16.08567818177901, 38.51293057360571 16.34271804539089 M38.51293057360571 16.34271804539089 C38.20808896125722 16.527514822244708, 37.90324734890872 16.712311599098523, 37.44399226407678 16.990714730406093 M38.51293057360571 16.34271804539089 C38.246364102571796 16.50431220665011, 37.979797631537885 16.665906367909333, 37.44399226407678 16.990714730406093 M37.44399226407678 16.990714730406093 C37.186539534605295 17.125027654465026, 36.929086805133814 17.259340578523958, 36.33573291279239 17.56889292409717 M37.44399226407678 16.990714730406093 C37.19657417119843 17.11979259098188, 36.94915607832007 17.248870451557668, 36.33573291279239 17.56889292409717 M36.33573291279239 17.56889292409717 C36.0120510692572 17.712177274549457, 35.688369225722006 17.855461625001748, 35.192706595147804 18.07487676824742 M36.33573291279239 17.56889292409717 C36.094044157267994 17.67588136672562, 35.852355401743594 17.782869809354068, 35.192706595147804 18.07487676824742 M35.192706595147804 18.07487676824742 C34.796694222576214 18.22061298205201, 34.40068185000462 18.3663491958566, 34.01961025146062 18.506587066708033 M35.192706595147804 18.07487676824742 C34.856424241198106 18.198631783060915, 34.52014188724841 18.322386797874405, 34.01961025146062 18.506587066708033 M34.01961025146062 18.506587066708033 C33.62768509530935 18.622908395796603, 33.23575993915808 18.739229724885178, 32.82126438623541 18.86224982926107 M34.01961025146062 18.506587066708033 C33.70492437112862 18.59998418417068, 33.39023849079661 18.693381301633323, 32.82126438623541 18.86224982926107 M32.82126438623541 18.86224982926107 C32.45101971268297 18.946755759927125, 32.08077503913053 19.031261690593183, 31.602593259676766 19.140403561325773 M32.82126438623541 18.86224982926107 C32.57747457080046 18.917893263756877, 32.33368475536551 18.973536698252683, 31.602593259676766 19.140403561325773 M31.602593259676766 19.140403561325773 C31.12415439430894 19.21775384672963, 30.645715528941107 19.295104132133485, 30.36860465284788 19.3399052695533 M31.602593259676766 19.140403561325773 C31.2107017129219 19.203761547440767, 30.81881016616703 19.267119533555757, 30.36860465284788 19.3399052695533 M30.36860465284788 19.3399052695533 C29.919907311246998 19.38319056246003, 29.471209969646115 19.426475855366764, 29.1243692896239 19.45993515863156 M30.36860465284788 19.3399052695533 C29.953908615631715 19.379910497518587, 29.539212578415555 19.41991572548388, 29.1243692896239 19.45993515863156 M29.1243692896239 19.45993515863156 C28.774937746366657 19.47114074809658, 28.425506203109414 19.4823463375616, 27.875000000000004 19.5 M29.1243692896239 19.45993515863156 C28.624916386474418 19.47595164110946, 28.125463483324932 19.491968123587366, 27.875000000000004 19.5 M27.875000000000004 19.5 C27.875000000000004 19.5, 27.875 19.5, 27.875 19.5 M27.875000000000004 19.5 C27.875000000000004 19.5, 27.875 19.5, 27.875 19.5 M27.875 19.5 C15.978240048577609 19.5, 4.081480097155218 19.5, -27.874999999999996 19.5 M27.875 19.5 C14.713164770664854 19.5, 1.5513295413297072 19.5, -27.874999999999996 19.5 M-27.874999999999996 19.5 C-28.25032995658082 19.487963898827896, -28.625659913161645 19.47592779765579, -29.124369289623893 19.45993515863156 M-27.874999999999996 19.5 C-28.137120222785217 19.49159431464134, -28.399240445570438 19.48318862928268, -29.124369289623893 19.45993515863156 M-29.124369289623893 19.45993515863156 C-29.587398865415963 19.415267252329436, -30.050428441208034 19.370599346027316, -30.36860465284787 19.3399052695533 M-29.124369289623893 19.45993515863156 C-29.540350494993977 19.4198059520401, -29.956331700364057 19.379676745448645, -30.36860465284787 19.3399052695533 M-30.36860465284787 19.3399052695533 C-30.752073105543857 19.277909063963676, -31.135541558239844 19.215912858374054, -31.60259325967676 19.140403561325773 M-30.36860465284787 19.3399052695533 C-30.840868675328576 19.263553284860812, -31.313132697809284 19.187201300168322, -31.60259325967676 19.140403561325773 M-31.60259325967676 19.140403561325773 C-31.902336923404786 19.071989026090055, -32.20208058713281 19.003574490854337, -32.821264386235384 18.862249829261074 M-31.60259325967676 19.140403561325773 C-31.998589960926918 19.050019898385397, -32.394586662177076 18.959636235445025, -32.821264386235384 18.862249829261074 M-32.821264386235384 18.862249829261074 C-33.19659141309664 18.750854737820422, -33.5719184399579 18.63945964637977, -34.01961025146059 18.506587066708043 M-32.821264386235384 18.862249829261074 C-33.20902824605772 18.74716355107984, -33.596792105880056 18.63207727289861, -34.01961025146059 18.506587066708043 M-34.01961025146059 18.506587066708043 C-34.35058772910533 18.384784295412516, -34.68156520675006 18.26298152411699, -35.1927065951478 18.074876768247425 M-34.01961025146059 18.506587066708043 C-34.37890012371348 18.374365072479808, -34.738189995966366 18.242143078251576, -35.1927065951478 18.074876768247425 M-35.1927065951478 18.074876768247425 C-35.58544935552658 17.901021198527786, -35.978192115905365 17.72716562880815, -36.33573291279238 17.568892924097174 M-35.1927065951478 18.074876768247425 C-35.605712103139396 17.892051481232645, -36.018717611131 17.709226194217866, -36.33573291279238 17.568892924097174 M-36.33573291279238 17.568892924097174 C-36.57401788399801 17.444579807248004, -36.81230285520364 17.32026669039884, -37.44399226407678 16.990714730406097 M-36.33573291279238 17.568892924097174 C-36.773784952932125 17.34036145534199, -37.21183699307188 17.11182998658681, -37.44399226407678 16.990714730406097 M-37.44399226407678 16.990714730406097 C-37.776368665098836 16.789226202845988, -38.10874506612088 16.58773767528588, -38.512930573605686 16.3427180453909 M-37.44399226407678 16.990714730406097 C-37.726820837691676 16.81926238699556, -38.00964941130657 16.647810043585025, -38.512930573605686 16.3427180453909 M-38.512930573605686 16.3427180453909 C-38.787760919225335 16.151008293500546, -39.06259126484498 15.959298541610192, -39.53815534457871 15.627565626425156 M-38.512930573605686 16.3427180453909 C-38.88778210131096 16.081237846724804, -39.26263362901623 15.819757648058706, -39.53815534457871 15.627565626425156 M-39.53815534457871 15.627565626425156 C-39.842079177015016 15.385194457810046, -40.14600300945133 15.142823289194936, -40.515453708501866 14.848196188198125 M-39.53815534457871 15.627565626425156 C-39.820799453851095 15.40216447075606, -40.10344356312348 15.176763315086964, -40.515453708501866 14.848196188198125 M-40.515453708501866 14.848196188198125 C-40.744463415187006 14.640215631851484, -40.973473121872146 14.432235075504842, -41.440809736767974 14.007812326905697 M-40.515453708501866 14.848196188198125 C-40.762855238294144 14.623512664726551, -41.01025676808643 14.398829141254977, -41.440809736767974 14.007812326905697 M-41.440809736767974 14.007812326905697 C-41.781260964811146 13.656268482385476, -42.12171219285431 13.304724637865256, -42.310420942968655 13.109867360095677 M-41.440809736767974 14.007812326905697 C-41.739480708252366 13.69941002750527, -42.03815167973676 13.391007728104842, -42.310420942968655 13.109867360095677 M-42.310420942968655 13.109867360095677 C-42.62331291139367 12.74232664992628, -42.93620487981869 12.374785939756883, -43.120713908126575 12.158051136245307 M-42.310420942968655 13.109867360095677 C-42.590374173234075 12.78101836603584, -42.870327403499495 12.452169371976003, -43.120713908126575 12.158051136245307 M-43.120713908126575 12.158051136245307 C-43.3813834028591 11.808777760783231, -43.64205289759162 11.459504385321155, -43.868358964640635 11.156274872382316 M-43.120713908126575 12.158051136245307 C-43.30229536474958 11.914748526781484, -43.4838768213726 11.67144591731766, -43.868358964640635 11.156274872382316 M-43.868358964640635 11.156274872382316 C-44.08600305417175 10.821915105241327, -44.30364714370286 10.48755533810034, -44.55028387860425 10.108655082055249 M-43.868358964640635 11.156274872382316 C-44.1218250922354 10.766882835211476, -44.37529121983016 10.377490798040636, -44.55028387860425 10.108655082055249 M-44.55028387860425 10.108655082055249 C-44.74167034292233 9.768829034677488, -44.93305680724041 9.429002987299725, -45.163686474273504 9.019496659696289 M-44.55028387860425 10.108655082055249 C-44.69019786641449 9.860223628870584, -44.83011185422474 9.61179217568592, -45.163686474273504 9.019496659696289 M-45.163686474273504 9.019496659696289 C-45.2836190888297 8.770454019423475, -45.40355170338591 8.52141137915066, -45.70604614880834 7.893275190886686 M-45.163686474273504 9.019496659696289 C-45.34960030890068 8.633442604174142, -45.53551414352786 8.247388548651994, -45.70604614880834 7.893275190886686 M-45.70604614880834 7.893275190886686 C-45.89343681276461 7.4304166279626696, -46.08082747672089 6.967558065038652, -46.175134229970325 6.73461856121551 M-45.70604614880834 7.893275190886686 C-45.83368679177992 7.578000334982945, -45.96132743475149 7.262725479079203, -46.175134229970325 6.73461856121551 M-46.175134229970325 6.73461856121551 C-46.32945412831231 6.269831614946215, -46.48377402665428 5.805044668676919, -46.56902313421488 5.5482879393051325 M-46.175134229970325 6.73461856121551 C-46.32294732950688 6.289429056230544, -46.47076042904344 5.844239551245577, -46.56902313421488 5.5482879393051325 M-46.56902313421488 5.5482879393051325 C-46.66827161863359 5.169810453651351, -46.7675201030523 4.79133296799757, -46.88609428754556 4.339158212148136 M-46.56902313421488 5.5482879393051325 C-46.64144578337907 5.272108989867385, -46.71386843254326 4.995930040429637, -46.88609428754556 4.339158212148136 M-46.88609428754556 4.339158212148136 C-46.95752278672351 3.972387965288006, -47.028951285901464 3.605617718427876, -47.125044776581774 3.112197953150904 M-46.88609428754556 4.339158212148136 C-46.98137000624315 3.8499375331662926, -47.07664572494074 3.3607168541844494, -47.125044776581774 3.112197953150904 M-47.125044776581774 3.112197953150904 C-47.17282442621829 2.741628425729085, -47.22060407585481 2.3710588983072656, -47.28489270250937 1.872449005199809 M-47.125044776581774 3.112197953150904 C-47.182664861404874 2.665307953635698, -47.24028494622797 2.2184179541204916, -47.28489270250937 1.872449005199809 M-47.28489270250937 1.872449005199809 C-47.303422737860174 1.5838287474356747, -47.32195277321098 1.2952084896715403, -47.36498121591342 0.6250057626472781 M-47.28489270250937 1.872449005199809 C-47.30736097067152 1.5224875925146417, -47.329829238833675 1.1725261798294742, -47.36498121591342 0.6250057626472781 M-47.36498121591342 0.6250057626472781 C-47.36498121591342 0.23037376299773255, -47.36498121591342 -0.16425823665181305, -47.36498121591342 -0.6250057626472687 M-47.36498121591342 0.6250057626472781 C-47.36498121591342 0.33904927640384985, -47.36498121591342 0.053092790160421566, -47.36498121591342 -0.6250057626472687 M-47.36498121591342 -0.6250057626472687 C-47.33970211628555 -1.0187481442732629, -47.31442301665768 -1.412490525899257, -47.28489270250937 -1.8724490051997822 M-47.36498121591342 -0.6250057626472687 C-47.346491975276386 -0.9129906098153984, -47.32800273463936 -1.200975456983528, -47.28489270250937 -1.8724490051997822 M-47.28489270250937 -1.8724490051997822 C-47.22607128083346 -2.328656336114577, -47.16724985915756 -2.7848636670293723, -47.125044776581774 -3.112197953150895 M-47.28489270250937 -1.8724490051997822 C-47.248324870311606 -2.1560618905903937, -47.211757038113845 -2.439674775981005, -47.125044776581774 -3.112197953150895 M-47.125044776581774 -3.112197953150895 C-47.05087962401817 -3.4930203367544417, -46.97671447145457 -3.873842720357988, -46.88609428754556 -4.339158212148126 M-47.125044776581774 -3.112197953150895 C-47.03995989903167 -3.549090816675446, -46.95487502148157 -3.9859836801999964, -46.88609428754556 -4.339158212148126 M-46.88609428754556 -4.339158212148126 C-46.77530804956359 -4.761634152632649, -46.66452181158162 -5.184110093117171, -46.56902313421489 -5.548287939305123 M-46.88609428754556 -4.339158212148126 C-46.81917117323788 -4.5943650516645205, -46.752248058930206 -4.849571891180915, -46.56902313421489 -5.548287939305123 M-46.56902313421489 -5.548287939305123 C-46.445238918933185 -5.921106273397259, -46.321454703651476 -6.293924607489395, -46.17513422997033 -6.734618561215485 M-46.56902313421489 -5.548287939305123 C-46.42111908644523 -5.993751365877544, -46.27321503867557 -6.439214792449965, -46.17513422997033 -6.734618561215485 M-46.17513422997033 -6.734618561215485 C-46.04943956139398 -7.04508682274017, -45.92374489281763 -7.355555084264854, -45.70604614880834 -7.893275190886676 M-46.17513422997033 -6.734618561215485 C-46.06715310060433 -7.001334038422628, -45.95917197123833 -7.268049515629771, -45.70604614880834 -7.893275190886676 M-45.70604614880834 -7.893275190886676 C-45.49881585481889 -8.323593330373743, -45.291585560829446 -8.75391146986081, -45.163686474273504 -9.019496659696282 M-45.70604614880834 -7.893275190886676 C-45.58856462629665 -8.1372280860841, -45.471083103784956 -8.381180981281524, -45.163686474273504 -9.019496659696282 M-45.163686474273504 -9.019496659696282 C-45.023563155466206 -9.268299801263275, -44.88343983665891 -9.517102942830267, -44.55028387860425 -10.108655082055243 M-45.163686474273504 -9.019496659696282 C-44.98511591756838 -9.336566765355863, -44.80654536086326 -9.653636871015447, -44.55028387860425 -10.108655082055243 M-44.55028387860425 -10.108655082055243 C-44.34562512562412 -10.423065885202826, -44.14096637264399 -10.73747668835041, -43.86835896464064 -11.156274872382308 M-44.55028387860425 -10.108655082055243 C-44.29074179805355 -10.50738141458821, -44.03119971750286 -10.906107747121178, -43.86835896464064 -11.156274872382308 M-43.86835896464064 -11.156274872382308 C-43.6238402521127 -11.483907671056778, -43.37932153958476 -11.81154046973125, -43.12071390812659 -12.158051136245302 M-43.86835896464064 -11.156274872382308 C-43.65929960941606 -11.436395362684179, -43.450240254191485 -11.71651585298605, -43.12071390812659 -12.158051136245302 M-43.12071390812659 -12.158051136245302 C-42.88032069847099 -12.440430679067902, -42.63992748881539 -12.722810221890501, -42.31042094296866 -13.10986736009567 M-43.12071390812659 -12.158051136245302 C-42.87286690099597 -12.449186333715149, -42.62501989386535 -12.740321531184994, -42.31042094296866 -13.10986736009567 M-42.31042094296866 -13.10986736009567 C-42.06885680948661 -13.359302160700086, -41.82729267600456 -13.608736961304501, -41.440809736767996 -14.007812326905677 M-42.31042094296866 -13.10986736009567 C-42.08059248024299 -13.347184117127634, -41.85076401751732 -13.584500874159598, -41.440809736767996 -14.007812326905677 M-41.440809736767996 -14.007812326905677 C-41.21764353353169 -14.210485968030715, -40.99447733029539 -14.413159609155755, -40.51545370850189 -14.848196188198107 M-41.440809736767996 -14.007812326905677 C-41.08823668433191 -14.328009844556355, -40.73566363189582 -14.648207362207033, -40.51545370850189 -14.848196188198107 M-40.51545370850189 -14.848196188198107 C-40.23257501857645 -15.073784415695563, -39.94969632865101 -15.29937264319302, -39.53815534457872 -15.627565626425149 M-40.51545370850189 -14.848196188198107 C-40.2519224103074 -15.058355385645843, -39.98839111211292 -15.268514583093577, -39.53815534457872 -15.627565626425149 M-39.53815534457872 -15.627565626425149 C-39.16589843426967 -15.887235932314818, -38.79364152396063 -16.146906238204487, -38.512930573605715 -16.342718045390885 M-39.53815534457872 -15.627565626425149 C-39.17662666293948 -15.87975238441229, -38.81509798130025 -16.131939142399432, -38.512930573605715 -16.342718045390885 M-38.512930573605715 -16.342718045390885 C-38.16751088034316 -16.55211349335808, -37.82209118708061 -16.76150894132527, -37.44399226407679 -16.99071473040609 M-38.512930573605715 -16.342718045390885 C-38.13834312814989 -16.569795156146377, -37.76375568269407 -16.796872266901865, -37.44399226407679 -16.99071473040609 M-37.44399226407679 -16.99071473040609 C-37.09869292176142 -17.170857176117238, -36.75339357944604 -17.350999621828382, -36.33573291279239 -17.56889292409717 M-37.44399226407679 -16.99071473040609 C-37.15326857878233 -17.1423850908068, -36.86254489348787 -17.294055451207512, -36.33573291279239 -17.56889292409717 M-36.33573291279239 -17.56889292409717 C-36.03554459242025 -17.701777388755776, -35.73535627204812 -17.834661853414385, -35.192706595147804 -18.07487676824742 M-36.33573291279239 -17.56889292409717 C-35.96202840160503 -17.73432082564936, -35.58832389041768 -17.899748727201544, -35.192706595147804 -18.07487676824742 M-35.192706595147804 -18.07487676824742 C-34.888935419041985 -18.186667369084333, -34.58516424293616 -18.298457969921245, -34.01961025146062 -18.506587066708033 M-35.192706595147804 -18.07487676824742 C-34.77326617702517 -18.22923471938127, -34.353825758902545 -18.38359267051512, -34.01961025146062 -18.506587066708033 M-34.01961025146062 -18.506587066708033 C-33.70487594297545 -18.599998557392333, -33.39014163449028 -18.693410048076633, -32.82126438623541 -18.862249829261067 M-34.01961025146062 -18.506587066708033 C-33.58063720808003 -18.636871961766868, -33.141664164699435 -18.767156856825704, -32.82126438623541 -18.862249829261067 M-32.82126438623541 -18.862249829261067 C-32.43930614064782 -18.949429306305944, -32.05734789506023 -19.036608783350825, -31.602593259676766 -19.140403561325773 M-32.82126438623541 -18.862249829261067 C-32.389980551575526 -18.960687550132146, -31.958696716915643 -19.059125271003225, -31.602593259676766 -19.140403561325773 M-31.602593259676766 -19.140403561325773 C-31.261412966910974 -19.19556294516746, -30.92023267414518 -19.250722329009147, -30.368604652847882 -19.3399052695533 M-31.602593259676766 -19.140403561325773 C-31.34766136734594 -19.18161897265147, -31.092729475015116 -19.222834383977165, -30.368604652847882 -19.3399052695533 M-30.368604652847882 -19.3399052695533 C-29.988240525199192 -19.376598539492775, -29.607876397550502 -19.413291809432256, -29.124369289623903 -19.45993515863156 M-30.368604652847882 -19.3399052695533 C-30.007613677319696 -19.374729634807334, -29.64662270179151 -19.409554000061373, -29.124369289623903 -19.45993515863156 M-29.124369289623903 -19.45993515863156 C-28.75002336485552 -19.47193970381874, -28.37567744008713 -19.483944249005923, -27.875000000000007 -19.5 M-29.124369289623903 -19.45993515863156 C-28.69258757225328 -19.473781557895506, -28.26080585488266 -19.487627957159454, -27.875000000000007 -19.5 M-27.875000000000007 -19.5 C-27.875000000000007 -19.5, -27.875000000000004 -19.5, -27.875 -19.5 M-27.875000000000007 -19.5 C-27.875000000000004 -19.5, -27.875000000000004 -19.5, -27.875 -19.5" stroke="#89b4fa" stroke-width="1.3" fill="none" stroke-dasharray="0 0" style="fill:#89b4fa !important;stroke:#89b4fa !important"/></g><g class="label" style="color:#1e1e2e !important;font-weight:bold !important" transform="translate(-35, -12)"><rect/><foreignObject width="70" height="24"><div style="color: rgb(30, 30, 46) !important; font-weight: bold !important; display: table-cell; white-space: nowrap; line-height: 1.5; max-width: 600px; text-align: center;" xmlns="http://www.w3.org/1999/xhtml"><span style="color:#1e1e2e !important;font-weight:bold !important" class="nodeLabel "><p>axon-01</p></span></div></foreignObject></g></g><g class="node default core__default_c " id="my-svg-flowchart-core__default-1" data-look="classic" transform="translate(260.72996520996094, 70.5)"><polygon points="-19.5,0 154.5,0 135,-39 0,-39" class="label-container" transform="translate(-67.5,19.5)" style="fill:#f2cdcd !important;stroke:#f2cdcd !important;stroke-width:3px !important"/><g class="label" style="color:#1e1e2e !important" transform="translate(-60, -12)"><rect/><foreignObject width="120" height="24"><div style="color: rgb(30, 30, 46) !important; display: table-cell; white-space: nowrap; line-height: 1.5; max-width: 600px; text-align: center;" xmlns="http://www.w3.org/1999/xhtml"><span style="color:#1e1e2e !important" class="nodeLabel "><p>core/default</p></span></div></foreignObject></g></g><g class="node default disk__impermanence_c " id="my-svg-flowchart-disk__impermanence-2" data-look="classic" transform="translate(260.72996520996094, 139.5)"><polygon points="-19.5,0 204.5,0 185,-39 0,-39" class="label-container" transform="translate(-92.5,19.5)" style="fill:#f2cdcd !important;stroke:#f2cdcd !important;stroke-width:3px !important"/><g class="label" style="color:#1e1e2e !important" transform="translate(-85, -12)"><rect/><foreignObject width="170" height="24"><div style="color: rgb(30, 30, 46) !important; display: table-cell; white-space: nowrap; line-height: 1.5; max-width: 600px; text-align: center;" xmlns="http://www.w3.org/1999/xhtml"><span style="color:#1e1e2e !important" class="nodeLabel "><p>disk/impermanence</p></span></div></foreignObject></g></g><g class="node default core__persist_home_collector_c " id="my-svg-flowchart-core__persist_home_collector-3" data-look="classic" transform="translate(564.7299652099609, 139.5)"><polygon points="-19.5,0 304.5,0 285,-39 0,-39" class="label-container" transform="translate(-142.5,19.5)" style="fill:#cba6f7 !important;stroke:#cba6f7 !important;stroke-width:3px !important"/><g class="label" style="color:#1e1e2e !important" transform="translate(-135, -12)"><rect/><foreignObject width="270" height="24"><div style="color: rgb(30, 30, 46) !important; display: table-cell; white-space: nowrap; line-height: 1.5; max-width: 600px; text-align: center;" xmlns="http://www.w3.org/1999/xhtml"><span style="color:#1e1e2e !important" class="nodeLabel "><p>core/persist-home-collector</p></span></div></foreignObject></g></g><g class="node default apps__zsh_c " id="my-svg-flowchart-apps__zsh-4" data-look="classic" transform="translate(469.72996520996094, 70.5)"><polygon points="-19.5,0 114.5,0 95,-39 0,-39" class="label-container" transform="translate(-47.5,19.5)" style="fill:#f2cdcd !important;stroke:#f2cdcd !important;stroke-width:3px !important"/><g class="label" style="color:#1e1e2e !important" transform="translate(-40, -12)"><rect/><foreignObject width="80" height="24"><div style="color: rgb(30, 30, 46) !important; display: table-cell; white-space: nowrap; line-height: 1.5; max-width: 600px; text-align: center;" xmlns="http://www.w3.org/1999/xhtml"><span style="color:#1e1e2e !important" class="nodeLabel "><p>apps/zsh</p></span></div></foreignObject></g></g></g><g class="edges edgePaths"><path d="M118.73,70.5L169.73,70.5" id="my-svg-L_axon_01_core__default_0_0" class=" edge-thickness-normal edge-pattern-solid edge-thickness-normal edge-pattern-solid flowchart-link" style=";" data-edge="true" data-et="edge" data-id="L_axon_01_core__default_0_0" data-points="W3sieCI6MTE4LjcyOTk2NTIwOTk2MDk0LCJ5Ijo3MC41fSx7IngiOjE3My43Mjk5NjUyMDk5NjA5NCwieSI6NzAuNX1d" data-look="classic" marker-end="url(#my-svg_flowchart-v2-pointEnd)"/><path d="M118.73,83.5L120.397,83.5C122.063,83.5,125.397,83.5,127.535,83.862C129.673,84.224,130.616,84.948,131.449,85.781C132.282,86.614,133.006,87.557,133.368,95.695C133.73,103.833,133.73,119.167,134.092,127.305C134.454,135.443,135.178,136.386,136.011,137.219C136.844,138.052,137.787,138.776,139.259,139.138C140.73,139.5,142.73,139.5,143.73,139.5L144.73,139.5" id="my-svg-L_axon_01_disk__impermanence_0_0" class=" edge-thickness-normal edge-pattern-solid edge-thickness-normal edge-pattern-solid flowchart-link" style=";" data-edge="true" data-et="edge" data-id="L_axon_01_disk__impermanence_0_0" data-points="W3sieCI6MTE4LjcyOTk2NTIwOTk2MDk0LCJ5Ijo4My41fSx7IngiOjEzMy43Mjk5NjUyMDk5NjA5NCwieSI6ODMuNX0seyJ4IjoxMzMuNzI5OTY1MjA5OTYwOTQsInkiOjEzOS41fSx7IngiOjE0OC43Mjk5NjUyMDk5NjA5NCwieSI6MTM5LjV9XQ==" data-look="classic" marker-end="url(#my-svg_flowchart-v2-pointEnd)"/><path d="M347.73,70.5L398.73,70.5" id="my-svg-L_core__default_apps__zsh_0_0" class=" edge-thickness-normal edge-pattern-solid edge-thickness-normal edge-pattern-solid flowchart-link" style=";" data-edge="true" data-et="edge" data-id="L_core__default_apps__zsh_0_0" data-points="W3sieCI6MzQ3LjcyOTk2NTIwOTk2MDk0LCJ5Ijo3MC41fSx7IngiOjQwMi43Mjk5NjUyMDk5NjA5NCwieSI6NzAuNX1d" data-look="classic" marker-end="url(#my-svg_flowchart-v2-pointEnd)"/><path d="M372.73,139.5L398.73,139.5" id="my-svg-L_disk__impermanence_core__persist_home_collector_0_0" class=" edge-thickness-normal edge-pattern-solid edge-thickness-normal edge-pattern-solid flowchart-link" style=";" data-edge="true" data-et="edge" data-id="L_disk__impermanence_core__persist_home_collector_0_0" data-points="W3sieCI6MzcyLjcyOTk2NTIwOTk2MDk0LCJ5IjoxMzkuNX0seyJ4Ijo0MDIuNzI5OTY1MjA5OTYwOTQsInkiOjEzOS41fV0=" data-look="classic" marker-end="url(#my-svg_flowchart-v2-pointEnd)"/></g><g class="edgeLabels"><g class="edgeLabel"><g class="label" data-id="L_axon_01_core__default_0_0" transform="translate(0, 0)"><foreignObject width="0" height="0"><div xmlns="http://www.w3.org/1999/xhtml" class="labelBkg" style="display: table-cell; white-space: nowrap; line-height: 1.5; max-width: 200px; text-align: center;"><span class="edgeLabel "></span></div></foreignObject></g></g><g class="edgeLabel"><g class="label" data-id="L_axon_01_disk__impermanence_0_0" transform="translate(0, 0)"><foreignObject width="0" height="0"><div xmlns="http://www.w3.org/1999/xhtml" class="labelBkg" style="display: table-cell; white-space: nowrap; line-height: 1.5; max-width: 200px; text-align: center;"><span class="edgeLabel "></span></div></foreignObject></g></g><g class="edgeLabel"><g class="label" data-id="L_core__default_apps__zsh_0_0" transform="translate(0, 0)"><foreignObject width="0" height="0"><div xmlns="http://www.w3.org/1999/xhtml" class="labelBkg" style="display: table-cell; white-space: nowrap; line-height: 1.5; max-width: 200px; text-align: center;"><span class="edgeLabel "></span></div></foreignObject></g></g><g class="edgeLabel"><g class="label" data-id="L_disk__impermanence_core__persist_home_collector_0_0" transform="translate(0, 0)"><foreignObject width="0" height="0"><div xmlns="http://www.w3.org/1999/xhtml" class="labelBkg" style="display: table-cell; white-space: nowrap; line-height: 1.5; max-width: 200px; text-align: center;"><span class="edgeLabel "></span></div></foreignObject></g></g></g></svg>